<?xml version="1.0" encoding="UTF-8"?><svg xmlns="http://www.w3.org/2000/svg" width="1920" height="1080" xmlns:xlink="http://www.w3.org/1999/xlink" viewBox="0 0 1920 1080"><defs><style>.d{fill:#f5a44f;}.e{clip-path:url(#b);}.f{fill:#e55452;}.g{fill:none;}.h{fill:#fffefc;}</style><clipPath id="b"><rect class="g" width="1920" height="1080"/></clipPath></defs><g id="a"><g class="e"><rect class="h" width="1920" height="1076"/><path class="d" d="M1540.2643,548.6758c-200.1662,437.8536-600.1804,907.0443-493.7705,1412.7357,104.5137-33.9582,209.0273-67.9169,313.5412-101.8755-189.4096-404.7473,84.577-838.2759,180.2293-1310.8602Z"/><path class="f" d="M1540.2643,548.6758c-55.0652,478.2783-294.9556,942.0688-37.4866,1390.1274,88.9047-64.5927,177.8093-129.1858,266.7141-193.7789-305.2131-326.4068-174.1617-717.3359-229.2275-1196.3486Z"/><path class="d" d="M1540.2643,548.6758c95.426,471.8858,6.1535,881.0595,389.4788,1227.6262,64.5932-88.9044,129.1861-177.8091,193.7792-266.7139-391.1401-216.1153-382.8643-522.3605-583.2581-960.9124Z"/><path class="f" d="M1540.2643,548.6758c236.5763,419.3018,273.6724,729.9883,745.3315,941.1388,33.9588-104.5135,67.9173-209.0272,101.8759-313.541-438.7797-84.6689-521.1016-272.4353-847.2074-627.5978Z"/><path class="d" d="M1540.2643,548.6758c354.5688,325.6736,481.4144,503.6432,995.2379,558.7086,.0003-109.8921,.0002-219.7843,.0002-329.6766-443.4684,55.0655-575.3419,7.9754-995.2382-229.032Z"/><path class="f" d="M1540.2643,548.6758c437.8536,200.1662,609.0443,224.1804,1114.7357,117.7705-33.9582-104.5137-67.9169-209.0273-101.8755-313.5412-404.7473,189.4096-540.2759,291.423-1012.8602,195.7707Z"/><path class="d" d="M1540.2643,548.6758c478.2783,55.0652,644.0688-81.0444,1092.1274-338.5134-64.5927-88.9047-129.1858-177.8093-193.7789-266.7141-326.4068,305.2131-419.3359,550.1617-898.3486,605.2275Z"/><path class="f" d="M1540.2643,548.6758c471.8858-95.426,583.0595-382.1535,929.6262-765.4788-88.9044-64.5932-177.8091-129.1861-266.7139-193.7792-216.1153,391.1401-224.3605,758.8643-662.9124,959.2581Z"/><path class="d" d="M1540.2643,548.6758c419.3018-236.5763,431.9883-649.6724,643.1388-1121.3315-104.5135-33.9588-209.0272-67.9173-313.541-101.8759-84.6689,438.7797,25.5647,897.1016-329.5978,1223.2074Z"/><path class="f" d="M1540.2643,548.6758c325.6736-354.5688,205.6432-857.4144,260.7086-1371.2379-109.8921-.0003-219.7843-.0002-329.6766-.0002,55.0655,443.4684,305.9754,951.3419,68.968,1371.2382Z"/><path class="d" d="M1540.2643,548.6758c200.1662-437.8536-73.8196-985.0443-180.2295-1490.7357-104.5137,33.9582-209.0273,67.9169-313.5412,101.8755,189.4096,404.7473,589.423,916.2759,493.7707,1388.8602Z"/><path class="f" d="M1540.2643,548.6758c55.0652-478.2783-379.0444-1020.0688-636.5134-1468.1274-88.9047,64.5927-177.8093,129.1858-266.7141,193.7789C942.2499-399.2659,1485.1985,69.6632,1540.2643,548.6758Z"/><path class="d" d="M1540.2643,548.6758C1444.8383,76.7901,860.1108-410.3837,476.7855-756.9504c-64.5932,88.9044-129.1861,177.8091-193.7792,266.7139C674.1464-274.1213,1339.8706,110.124,1540.2643,548.6758Z"/><path class="f" d="M1540.2643,548.6758C1303.6881,129.3741,592.5919-259.3125,120.9329-470.463,86.9741-365.9495,53.0156-261.4358,19.057-156.922,457.8366-72.2531,1214.1586,193.5133,1540.2643,548.6758Z"/><path class="d" d="M1540.2643,548.6758C1185.6956,223.0022,384.8499-32.9674-128.9736-88.0328c-.0003,109.8921-.0002,219.7843-.0002,329.6766,443.4684-55.0655,1249.3419,70.0246,1669.2382,307.032Z"/><path class="f" d="M1540.2643,548.6758C1102.4107,348.5096,257.22,246.4955-248.4714,352.9053c33.9582,104.5137,67.9169,209.0273,101.8755,313.5412,404.7473-189.4096,1214.2759-213.423,1686.8602-117.7707Z"/><path class="d" d="M1540.2643,548.6758c-478.2783-55.0652-1318.0688,3.0444-1766.1274,260.5134,64.5927,88.9047,129.1858,177.8093,193.7789,266.7141,326.4068-305.2131,1093.3359-472.1617,1572.3486-527.2275Z"/><path class="f" d="M1540.2643,548.6758C1068.3786,644.1018,283.2048,852.8293-63.3619,1236.1546c88.9044,64.5932,177.8091,129.1861,266.7139,193.7792,216.1153-391.1401,898.3605-680.8643,1336.9124-881.2581Z"/><path class="d" d="M1540.2643,548.6758C1120.9626,785.2521,434.276,1120.3482,223.1255,1592.0073c104.5135,33.9588,209.0272,67.9173,313.541,101.8759,84.6689-438.7797,648.4353-819.1016,1003.5978-1145.2074Z"/><path class="f" d="M1540.2643,548.6758c-325.6736,354.5688-879.6432,779.4144-934.7086,1293.2379,109.8921,.0003,219.7843,.0002,329.6766,.0002-55.0655-443.4684,368.0246-873.3419,605.032-1293.2382Z"/></g></g><g id="c"/></svg>