<?xml version="1.0" encoding="UTF-8"?><svg id="a" xmlns="http://www.w3.org/2000/svg" width="1920" height="1189.7037" xmlns:xlink="http://www.w3.org/1999/xlink" viewBox="0 0 1920 1189.7037"><defs><style>.c{fill:#f5a44f;}.d{clip-path:url(#b);}.e{fill:#e55452;}.f{fill:none;}.g{fill:#6d1919;}.h{fill:#fffefc;}</style><clipPath id="b"><rect class="f" y="38" width="1920" height="1080"/></clipPath></defs><g class="d"><g><g><path class="g" d="M1920,1009.7037c-86.5842,2.6746-162.5968,45.6216-244.9196,67.0854-76.1703,19.8597-144.1741,4.6589-216.688-21.399-57.8508-20.7887-117.0538-45.9396-179.5907-45.6157-59.7273,.3094-116.4124,23.6134-171.7126,43.6345-53.9443,19.5302-109.8406,38.4113-168.0362,33.2814-58.6245-5.1677-113.6423-29.2728-168.5614-48.6414-58.3865-20.5915-116.8353-35.1268-178.8211-23.5451-63.0552,11.7816-121.2863,40.4627-182.5614,58.4233-67.4021,19.7565-129.3257,16.1011-195.8229-5.4611-70.4552-22.8456-138.0317-55.4377-213.2861-57.7624v-34c75.2544,2.3246,142.8309,34.9168,213.2861,57.7624,66.4972,21.5622,128.4209,25.2176,195.8229,5.4611,61.2751-17.9606,119.5062-46.6418,182.5614-58.4233,61.9858-11.5817,120.4346,2.9536,178.8211,23.5451,54.9191,19.3686,109.937,43.4737,168.5614,48.6414,58.1956,5.1299,114.0919-13.7513,168.0362-33.2814,55.3003-20.0211,111.9854-43.325,171.7126-43.6345,62.5369-.3239,121.7399,24.827,179.5907,45.6157,72.5139,26.0579,140.5177,41.2588,216.688,21.399,82.3228-21.4638,158.3353-64.4108,244.9196-67.0854v34Z"/><path class="g" d="M1920,870.3174c-86.5842,2.6746-162.5968,45.6216-244.9196,67.0854-76.1703,19.8597-144.1741,4.6589-216.688-21.399-57.8508-20.7887-117.0538-45.9396-179.5907-45.6157-59.7273,.3094-116.4124,23.6134-171.7126,43.6345-53.9443,19.5302-109.8406,38.4113-168.0362,33.2814-58.6245-5.1677-113.6423-29.2728-168.5614-48.6414-58.3865-20.5915-116.8353-35.1268-178.8211-23.5451-63.0552,11.7816-121.2863,40.4627-182.5614,58.4233-67.4021,19.7565-129.3257,16.1011-195.8229-5.4611-70.4552-22.8456-138.0317-55.4377-213.2861-57.7624v-34c75.2544,2.3246,142.8309,34.9168,213.2861,57.7624,66.4972,21.5622,128.4209,25.2176,195.8229,5.4611,61.2751-17.9606,119.5062-46.6418,182.5614-58.4233,61.9858-11.5817,120.4346,2.9536,178.8211,23.5451,54.9191,19.3686,109.937,43.4737,168.5614,48.6414,58.1956,5.1299,114.0919-13.7513,168.0362-33.2814,55.3003-20.0211,111.9854-43.325,171.7126-43.6345,62.5369-.3239,121.7399,24.827,179.5907,45.6157,72.5139,26.0579,140.5177,41.2588,216.688,21.399,82.3228-21.4638,158.3353-64.4108,244.9196-67.0854v34Z"/><path class="g" d="M1920,730.9312c-86.5842,2.6746-162.5968,45.6216-244.9196,67.0854-76.1703,19.8597-144.1741,4.6589-216.688-21.399-57.8508-20.7887-117.0538-45.9396-179.5907-45.6157-59.7273,.3094-116.4124,23.6134-171.7126,43.6345-53.9443,19.5302-109.8406,38.4113-168.0362,33.2814-58.6245-5.1677-113.6423-29.2728-168.5614-48.6414-58.5971-20.6657-116.5691-34.6658-178.7802-23.7358-62.5854,10.9957-120.8571,38.1176-181.8336,55.0267-67.3406,18.674-129.3341,15.0978-195.8907-5.145-70.7827-21.5281-138.9745-52.1288-213.987-54.4912v-34c74.9434,2.1217,143.4184,31.8343,214.3723,52.6931,66.4415,19.5323,128.7545,23.0419,195.9257,4.9813,60.8372-16.3574,119.0951-42.7266,181.4615-53.2904,62.2404-10.5425,120.1274,3.2929,178.7319,23.9612,54.9191,19.3686,109.937,43.4737,168.5614,48.6414,58.1956,5.1299,114.0919-13.7513,168.0362-33.2814,55.3003-20.0211,111.9854-43.325,171.7126-43.6345,62.5369-.3239,121.7399,24.827,179.5907,45.6157,72.5139,26.0579,140.5177,41.2588,216.688,21.399,82.3228-21.4638,158.3353-64.4108,244.9196-67.0854v34Z"/><path class="g" d="M1920,591.545c-86.5842,2.6746-162.5968,45.6216-244.9196,67.0854-76.1703,19.8597-144.1741,4.6589-216.688-21.399-57.8508-20.7887-117.0538-45.9396-179.5907-45.6156-59.7273,.3094-116.4124,23.6134-171.7126,43.6344-53.9443,19.5302-109.8406,38.4113-168.0362,33.2814-58.6245-5.1677-113.6423-29.2728-168.5614-48.6414-58.6563-20.6866-116.2883-34.0728-178.6225-24.4719-61.7691,9.5139-119.9951,33.7294-180.4606,48.6194-66.8261,16.4563-129.7867,13.1277-196.0197-4.5427-71.3973-19.0482-140.6414-46.2774-215.3887-47.9501v-34c74.6791,1.8735,144.0565,28.6192,215.5061,47.4022,66.3407,17.4399,129.1206,20.7637,196.0327,4.4822,60.4088-14.6991,118.6521-38.4964,180.3178-47.9532,62.4011-9.5695,119.9038,3.701,178.6349,24.414,54.9191,19.3686,109.937,43.4737,168.5614,48.6414,58.1956,5.1299,114.0919-13.7513,168.0362-33.2814,55.3003-20.021,111.9854-43.325,171.7126-43.6344,62.5369-.324,121.7399,24.8269,179.5907,45.6156,72.5139,26.0579,140.5177,41.2588,216.688,21.399,82.3228-21.4638,158.3353-64.4108,244.9196-67.0854v34Z"/><path class="g" d="M1920,452.1587c-86.5842,2.6746-162.5968,45.6216-244.9196,67.0854-76.1703,19.8597-144.1741,4.6589-216.688-21.399-57.8508-20.7888-117.0538-45.9396-179.5907-45.6157-59.7273,.3094-116.4124,23.6134-171.7126,43.6344-53.9443,19.5302-109.8406,38.4113-168.0362,33.2815-58.6245-5.1677-113.6423-29.2728-168.5614-48.6414-58.613-20.6714-116.4076-34.3232-178.6785-24.2107-62.1266,10.0891-120.3675,35.626-181.0511,51.3753-66.9861,17.385-129.6511,13.9533-195.9644-4.8008-71.1405-20.1194-139.9251-48.8533-214.7975-50.709v-34c74.9368,2.0964,143.4403,31.7191,214.4116,52.5099,66.4293,19.4602,128.7757,22.9627,195.9293,4.9647,60.8231-16.3014,119.0795-42.5943,181.4238-53.114,62.243-10.5027,120.1218,3.3161,178.7269,23.9846,54.9191,19.3686,109.937,43.4737,168.5614,48.6414,58.1956,5.1299,114.0919-13.7513,168.0362-33.2815,55.3003-20.021,111.9854-43.325,171.7126-43.6344,62.5369-.324,121.7399,24.8269,179.5907,45.6157,72.5139,26.0579,140.5177,41.2587,216.688,21.399,82.3228-21.4638,158.3353-64.4108,244.9196-67.0854v34Z"/><path class="g" d="M1920,312.7725c-86.5842,2.6746-162.5968,45.6216-244.9196,67.0854-76.1703,19.8597-144.1741,4.6589-216.688-21.399-57.8508-20.7888-117.0538-45.9396-179.5907-45.6157-59.7273,.3094-116.4124,23.6134-171.7126,43.6344-53.9443,19.5302-109.8406,38.4113-168.0362,33.2815-58.6245-5.1677-113.6423-29.2728-168.5614-48.6414-58.4677-20.6201-116.7758-35.0388-178.8351-23.4794-62.9449,11.7243-121.2022,39.993-182.4203,57.7648-67.5026,19.5962-129.211,15.9385-195.8357-5.4014-70.5137-22.5856-138.233-54.6877-213.4003-57.2292v-34c75.2522,2.3333,142.8311,34.9167,213.2868,57.759,66.5021,21.5605,128.4165,25.2164,195.8231,5.4604,61.2743-17.9588,119.5063-46.6325,182.5598-58.4155,61.9879-11.5839,120.4329,2.949,178.8219,23.5413,54.9191,19.3686,109.937,43.4737,168.5614,48.6414,58.1956,5.1299,114.0919-13.7513,168.0362-33.2815,55.3003-20.021,111.9854-43.325,171.7126-43.6344,62.5369-.324,121.7399,24.8269,179.5907,45.6157,72.5139,26.0579,140.5177,41.2587,216.688,21.399,82.3228-21.4638,158.3353-64.4108,244.9196-67.0854v34Z"/><path class="g" d="M1920,173.3862c-86.5842,2.6746-162.5968,45.6216-244.9196,67.0854-76.1703,19.8597-144.1741,4.6589-216.688-21.399-57.8508-20.7887-117.0538-45.9396-179.5907-45.6157-59.7273,.3094-116.4124,23.6134-171.7126,43.6344-53.9443,19.5302-109.8406,38.4113-168.0362,33.2815-58.6245-5.1677-113.6423-29.2728-168.5614-48.6414-58.3865-20.5915-116.8353-35.1268-178.8211-23.5451-63.0552,11.7815-121.2863,40.4627-182.5614,58.4233-67.4021,19.7565-129.3257,16.1012-195.8229-5.461C142.8309,208.3031,75.2544,175.7109,0,173.3862v-34c75.2544,2.3246,142.8309,34.9168,213.2861,57.7624,66.4972,21.5622,128.4209,25.2176,195.8229,5.461,61.2751-17.9606,119.5062-46.6418,182.5614-58.4233,61.9858-11.5817,120.4346,2.9536,178.8211,23.5451,54.9191,19.3686,109.937,43.4737,168.5614,48.6414,58.1956,5.1299,114.0919-13.7513,168.0362-33.2815,55.3003-20.021,111.9854-43.3251,171.7126-43.6345,62.5369-.324,121.7399,24.8269,179.5907,45.6157,72.5139,26.0579,140.5177,41.2587,216.688,21.399,82.3228-21.4638,158.3353-64.4108,244.9196-67.0854v34Z"/><path class="g" d="M1920,34c-86.5842,2.6746-162.5968,45.6216-244.9196,67.0854-76.1703,19.8597-144.1741,4.6589-216.688-21.399-57.8508-20.7887-117.0538-45.9396-179.5907-45.6157-59.7273,.3094-116.4124,23.6134-171.7126,43.6345-53.9443,19.5301-109.8406,38.4113-168.0362,33.2815-58.6245-5.1677-113.6423-29.2728-168.5614-48.6414-58.3865-20.5915-116.8353-35.1268-178.8211-23.5451-63.0552,11.7815-121.2863,40.4627-182.5614,58.4233-67.4021,19.7565-129.3257,16.1012-195.8229-5.461C142.8309,68.9168,75.2544,36.3246,0,34V0C75.2544,2.3246,142.8309,34.9168,213.2861,57.7624c66.4972,21.5622,128.4209,25.2176,195.8229,5.461,61.2751-17.9606,119.5062-46.6418,182.5614-58.4233,61.9858-11.5817,120.4346,2.9536,178.8211,23.5451,54.9191,19.3686,109.937,43.4737,168.5614,48.6414,58.1956,5.1299,114.0919-13.7513,168.0362-33.2815C1162.3894,23.6841,1219.0745,.3801,1278.8018,.0707c62.5369-.324,121.7399,24.8269,179.5907,45.6157,72.5139,26.0579,140.5177,41.2587,216.688,21.399C1757.4032,45.6216,1833.4158,2.6746,1920,0V34Z"/></g><g><path class="e" d="M1920,1043.7037c-86.5842,2.6746-162.5968,45.6216-244.9196,67.0853-76.1703,19.8597-144.1741,4.6589-216.688-21.399-57.8508-20.7887-117.0538-45.9396-179.5907-45.6157-59.7273,.3094-116.4124,23.6134-171.7126,43.6345-53.9443,19.5301-109.8406,38.4113-168.0362,33.2814-58.6245-5.1676-113.6423-29.2728-168.5614-48.6414-58.3865-20.5915-116.8353-35.1268-178.8211-23.5451-63.0552,11.7816-121.2863,40.4627-182.5614,58.4233-67.4021,19.7566-129.3257,16.1012-195.8229-5.461-70.4552-22.8456-138.0317-55.4377-213.2861-57.7624v-34.0001c75.2544,2.3246,142.8309,34.9168,213.2861,57.7624,66.4972,21.5622,128.4209,25.2176,195.8229,5.4611,61.2751-17.9606,119.5062-46.6418,182.5614-58.4233,61.9858-11.5817,120.4346,2.9536,178.8211,23.5451,54.9191,19.3686,109.937,43.4737,168.5614,48.6414,58.1956,5.1299,114.0919-13.7513,168.0362-33.2814,55.3003-20.0211,111.9854-43.325,171.7126-43.6345,62.5369-.3239,121.7399,24.827,179.5907,45.6157,72.5139,26.0579,140.5177,41.2588,216.688,21.399,82.3228-21.4638,158.3353-64.4108,244.9196-67.0854v34.0001Z"/><path class="e" d="M1920,904.3174c-86.5842,2.6746-162.5968,45.6216-244.9196,67.0854-76.1703,19.8597-144.1741,4.6589-216.688-21.399-57.8508-20.7887-117.0538-45.9396-179.5907-45.6157-59.7273,.3094-116.4124,23.6134-171.7126,43.6345-53.9443,19.5302-109.8406,38.4113-168.0362,33.2814-58.6245-5.1677-113.6423-29.2728-168.5614-48.6414-58.3865-20.5915-116.8353-35.1268-178.8211-23.5451-63.0552,11.7816-121.2863,40.4627-182.5614,58.4233-67.4021,19.7565-129.3257,16.1011-195.8229-5.4611-70.4552-22.8456-138.0317-55.4377-213.2861-57.7624v-34c75.2544,2.3246,142.8309,34.9168,213.2861,57.7624,66.4972,21.5622,128.4209,25.2176,195.8229,5.4611,61.2751-17.9606,119.5062-46.6418,182.5614-58.4233,61.9858-11.5817,120.4346,2.9536,178.8211,23.5451,54.9191,19.3686,109.937,43.4737,168.5614,48.6414,58.1956,5.1299,114.0919-13.7513,168.0362-33.2814,55.3003-20.0211,111.9854-43.325,171.7126-43.6345,62.5369-.3239,121.7399,24.827,179.5907,45.6157,72.5139,26.0579,140.5177,41.2588,216.688,21.399,82.3228-21.4638,158.3353-64.4108,244.9196-67.0854v34Z"/><path class="e" d="M1920,764.9312c-86.5842,2.6746-162.5968,45.6216-244.9196,67.0854-76.1703,19.8597-144.1741,4.6589-216.688-21.399-57.8508-20.7887-117.0538-45.9396-179.5907-45.6157-59.7273,.3094-116.4124,23.6134-171.7126,43.6345-53.9443,19.5302-109.8406,38.4113-168.0362,33.2814-58.6245-5.1677-113.6423-29.2728-168.5614-48.6414-58.5114-20.6355-116.7062-34.9153-178.8179-23.5597-62.7811,11.478-121.0454,39.1729-182.1658,56.5767-67.4659,19.2107-129.229,15.5823-195.8594-5.2906-70.6294-22.1257-138.5612-53.5449-213.6484-56.0716v-34c75.0125,2.3624,143.2044,32.9631,213.987,54.4912,66.5565,20.2427,128.55,23.8189,195.8907,5.145,60.9765-16.9091,119.2482-44.031,181.8336-55.0267,62.2111-10.9301,120.1831,3.0701,178.7802,23.7358,54.9191,19.3686,109.937,43.4737,168.5614,48.6414,58.1956,5.1299,114.0919-13.7513,168.0362-33.2814,55.3003-20.0211,111.9854-43.325,171.7126-43.6345,62.5369-.3239,121.7399,24.827,179.5907,45.6157,72.5139,26.0579,140.5177,41.2588,216.688,21.399,82.3228-21.4638,158.3353-64.4108,244.9196-67.0854v34Z"/><path class="e" d="M1920,625.545c-86.5842,2.6746-162.5968,45.6216-244.9196,67.0854-76.1703,19.8597-144.1741,4.6589-216.688-21.399-57.8508-20.7887-117.0538-45.9396-179.5907-45.6157-59.7273,.3094-116.4124,23.6134-171.7126,43.6345-53.9443,19.5302-109.8406,38.4113-168.0362,33.2814-58.6245-5.1677-113.6423-29.2728-168.5614-48.6414-58.6141-20.6718-116.353-34.2006-178.6403-24.3886-61.9282,9.7554-120.1542,34.5585-180.7176,49.8186-66.8637,16.8475-129.7599,13.4784-195.9957-4.6545-71.2885-19.5161-140.3276-47.4301-215.1379-49.1207v-34c74.7473,1.6727,143.9914,28.9019,215.3887,47.9501,66.233,17.6704,129.1936,20.999,196.0197,4.5427,60.4655-14.89,118.6915-39.1055,180.4606-48.6194,62.3342-9.6009,119.9662,3.7852,178.6225,24.4719,54.9191,19.3686,109.937,43.4737,168.5614,48.6414,58.1956,5.1299,114.0919-13.7513,168.0362-33.2814,55.3003-20.0211,111.9854-43.325,171.7126-43.6344,62.5369-.324,121.7399,24.8269,179.5907,45.6156,72.5139,26.0579,140.5177,41.2588,216.688,21.399,82.3228-21.4638,158.3353-64.4108,244.9196-67.0854v34Z"/><path class="e" d="M1920,486.1587c-86.5842,2.6746-162.5968,45.6216-244.9196,67.0854-76.1703,19.8597-144.1741,4.6589-216.688-21.399-57.8508-20.7888-117.0538-45.9396-179.5907-45.6157-59.7273,.3094-116.4124,23.6134-171.7126,43.6344-53.9443,19.5302-109.8406,38.4113-168.0362,33.2815-58.6245-5.1677-113.6423-29.2728-168.5614-48.6414-58.6141-20.6718-116.353-34.2006-178.6403-24.3886-61.9282,9.7554-120.1542,34.5585-180.7176,49.8186-66.8637,16.8476-129.7599,13.4784-195.9957-4.6545-71.2885-19.5161-140.3276-47.4301-215.1379-49.1207v-34c74.8724,1.8557,143.657,30.5896,214.7975,50.709,66.3133,18.7542,128.9783,22.1858,195.9644,4.8008,60.6837-15.7493,118.9246-41.2863,181.0511-51.3753,62.2709-10.1125,120.0654,3.5394,178.6785,24.2107,54.9191,19.3686,109.937,43.4737,168.5614,48.6414,58.1956,5.1299,114.0919-13.7513,168.0362-33.2815,55.3003-20.021,111.9854-43.325,171.7126-43.6344,62.5369-.324,121.7399,24.8269,179.5907,45.6157,72.5139,26.0579,140.5177,41.2587,216.688,21.399,82.3228-21.4638,158.3353-64.4108,244.9196-67.0854v34Z"/><path class="e" d="M1920,346.7725c-86.5842,2.6746-162.5968,45.6216-244.9196,67.0854-76.1703,19.8597-144.1741,4.6589-216.688-21.399-57.8508-20.7888-117.0538-45.9396-179.5907-45.6157-59.7273,.3094-116.4124,23.6134-171.7126,43.6344-53.9443,19.5302-109.8406,38.4113-168.0362,33.2815-58.6245-5.1677-113.6423-29.2728-168.5614-48.6414-58.5114-20.6355-116.7062-34.9153-178.8179-23.5597-62.7811,11.478-121.0454,39.1729-182.1658,56.5767-67.4659,19.2107-129.229,15.5822-195.8594-5.2906-70.6294-22.1256-138.5612-53.5449-213.6484-56.0716v-34c75.1674,2.5414,142.8866,34.6436,213.4003,57.2292,66.6247,21.34,128.3331,24.9976,195.8357,5.4014,61.2181-17.7718,119.4754-46.0404,182.4203-57.7648,62.0593-11.5594,120.3675,2.8593,178.8351,23.4794,54.9191,19.3686,109.937,43.4737,168.5614,48.6414,58.1956,5.1299,114.0919-13.7513,168.0362-33.2815,55.3003-20.021,111.9854-43.325,171.7126-43.6344,62.5369-.324,121.7399,24.8269,179.5907,45.6157,72.5139,26.0579,140.5177,41.2587,216.688,21.399,82.3228-21.4638,158.3353-64.4108,244.9196-67.0854v34Z"/><path class="e" d="M1920,207.3862c-86.5842,2.6746-162.5968,45.6216-244.9196,67.0854-76.1703,19.8597-144.1741,4.6589-216.688-21.399-57.8508-20.7887-117.0538-45.9396-179.5907-45.6157-59.7273,.3094-116.4124,23.6134-171.7126,43.6344-53.9443,19.5302-109.8406,38.4113-168.0362,33.2815-58.6245-5.1677-113.6423-29.2728-168.5614-48.6414-58.3865-20.5915-116.8353-35.1268-178.8211-23.5451-63.0552,11.7815-121.2863,40.4627-182.5614,58.4233-67.4021,19.7565-129.3257,16.1012-195.8229-5.461C142.8309,242.3031,75.2544,209.7109,0,207.3862v-34c75.2544,2.3246,142.8309,34.9168,213.2861,57.7624,66.4972,21.5622,128.4209,25.2176,195.8229,5.461,61.2751-17.9606,119.5062-46.6418,182.5614-58.4233,61.9858-11.5817,120.4346,2.9536,178.8211,23.5451,54.9191,19.3686,109.937,43.4737,168.5614,48.6414,58.1956,5.1299,114.0919-13.7513,168.0362-33.2815,55.3003-20.021,111.9854-43.325,171.7126-43.6344,62.5369-.324,121.7399,24.8269,179.5907,45.6157,72.5139,26.0579,140.5177,41.2587,216.688,21.399,82.3228-21.4638,158.3353-64.4108,244.9196-67.0854v34Z"/><path class="e" d="M1920,68c-86.5842,2.6746-162.5968,45.6216-244.9196,67.0854-76.1703,19.8597-144.1741,4.6589-216.688-21.399-57.8508-20.7887-117.0538-45.9396-179.5907-45.6157-59.7273,.3094-116.4124,23.6134-171.7126,43.6344-53.9443,19.5301-109.8406,38.4113-168.0362,33.2815-58.6245-5.1677-113.6423-29.2728-168.5614-48.6414-58.3865-20.5915-116.8353-35.1268-178.8211-23.5451-63.0552,11.7815-121.2863,40.4627-182.5614,58.4233-67.4021,19.7565-129.3257,16.1012-195.8229-5.461C142.8309,102.9168,75.2544,70.3246,0,68V34c75.2544,2.3246,142.8309,34.9168,213.2861,57.7624,66.4972,21.5622,128.4209,25.2176,195.8229,5.461,61.2751-17.9606,119.5062-46.6418,182.5614-58.4233,61.9858-11.5817,120.4346,2.9536,178.8211,23.5451,54.9191,19.3686,109.937,43.4737,168.5614,48.6414,58.1956,5.1299,114.0919-13.7513,168.0362-33.2815,55.3003-20.021,111.9854-43.325,171.7126-43.6345,62.5369-.324,121.7399,24.8269,179.5907,45.6157,72.5139,26.0579,140.5177,41.2587,216.688,21.399,82.3228-21.4638,158.3353-64.4108,244.9196-67.0854v34Z"/></g><g><path class="c" d="M1920,1077.7037c-86.5842,2.6746-162.5968,45.6216-244.9196,67.0853-76.1703,19.8597-144.1741,4.6589-216.688-21.3989-57.8508-20.7888-117.0538-45.9396-179.5907-45.6157-59.7273,.3094-116.4124,23.6134-171.7126,43.6345-53.9443,19.53-109.8406,38.4113-168.0362,33.2814-58.6245-5.1676-113.6423-29.2727-168.5614-48.6414-58.3865-20.5915-116.8353-35.1268-178.8211-23.5451-63.0552,11.7816-121.2863,40.4627-182.5614,58.4233-67.4021,19.7566-129.3257,16.1012-195.8229-5.4609-70.4552-22.8456-138.0317-55.4378-213.2861-57.7625v-34c75.2544,2.3246,142.8309,34.9168,213.2861,57.7624,66.4972,21.5622,128.4209,25.2176,195.8229,5.461,61.2751-17.9606,119.5062-46.6417,182.5614-58.4233,61.9858-11.5817,120.4346,2.9536,178.8211,23.5451,54.9191,19.3686,109.937,43.4738,168.5614,48.6414,58.1956,5.1299,114.0919-13.7513,168.0362-33.2814,55.3003-20.0211,111.9854-43.325,171.7126-43.6345,62.5369-.3239,121.7399,24.827,179.5907,45.6157,72.5139,26.0579,140.5177,41.2587,216.688,21.399,82.3228-21.4637,158.3353-64.4107,244.9196-67.0853v34Z"/><path class="c" d="M1920,938.3174c-86.5842,2.6746-162.5968,45.6216-244.9196,67.0854-76.1703,19.8597-144.1741,4.6589-216.688-21.399-57.8508-20.7887-117.0538-45.9396-179.5907-45.6157-59.7273,.3094-116.4124,23.6134-171.7126,43.6345-53.9443,19.5302-109.8406,38.4113-168.0362,33.2814-58.6245-5.1677-113.6423-29.2728-168.5614-48.6414-58.3865-20.5915-116.8353-35.1268-178.8211-23.5451-63.0552,11.7816-121.2863,40.4627-182.5614,58.4233-67.4021,19.7565-129.3257,16.1011-195.8229-5.4611-70.4552-22.8456-138.0317-55.4377-213.2861-57.7624v-34c75.2544,2.3246,142.8309,34.9168,213.2861,57.7624,66.4972,21.5622,128.4209,25.2176,195.8229,5.4611,61.2751-17.9606,119.5062-46.6418,182.5614-58.4233,61.9858-11.5817,120.4346,2.9536,178.8211,23.5451,54.9191,19.3686,109.937,43.4737,168.5614,48.6414,58.1956,5.1299,114.0919-13.7513,168.0362-33.2814,55.3003-20.0211,111.9854-43.325,171.7126-43.6345,62.5369-.3239,121.7399,24.827,179.5907,45.6157,72.5139,26.0579,140.5177,41.2588,216.688,21.399,82.3228-21.4638,158.3353-64.4108,244.9196-67.0854v34Z"/><path class="c" d="M1920,798.9312c-86.5842,2.6746-162.5968,45.6216-244.9196,67.0854-76.1703,19.8597-144.1741,4.6589-216.688-21.399-57.8508-20.7887-117.0538-45.9396-179.5907-45.6157-59.7273,.3094-116.4124,23.6134-171.7126,43.6345-53.9443,19.5302-109.8406,38.4113-168.0362,33.2814-58.6245-5.1677-113.6423-29.2728-168.5614-48.6414-58.4677-20.6201-116.7758-35.0388-178.8351-23.4794-62.9449,11.7243-121.2022,39.993-182.4203,57.7648-67.5026,19.5961-129.211,15.9385-195.8357-5.4014-70.5137-22.5856-138.233-54.6877-213.4003-57.2292v-34c75.0872,2.5267,143.019,33.9459,213.6484,56.0716,66.6304,20.8729,128.3935,24.5013,195.8594,5.2906,61.1204-17.4038,119.3846-45.0987,182.1658-56.5767,62.1118-11.3557,120.3065,2.9242,178.8179,23.5597,54.9191,19.3686,109.937,43.4737,168.5614,48.6414,58.1956,5.1299,114.0919-13.7513,168.0362-33.2814,55.3003-20.0211,111.9854-43.325,171.7126-43.6345,62.5369-.3239,121.7399,24.827,179.5907,45.6157,72.5139,26.0579,140.5177,41.2588,216.688,21.399,82.3228-21.4638,158.3353-64.4108,244.9196-67.0854v34Z"/><path class="c" d="M1920,659.545c-86.5842,2.6746-162.5968,45.6216-244.9196,67.0854-76.1703,19.8597-144.1741,4.6589-216.688-21.399-57.8508-20.7887-117.0538-45.9396-179.5907-45.6157-59.7273,.3094-116.4124,23.6134-171.7126,43.6345-53.9443,19.5302-109.8406,38.4113-168.0362,33.2814-58.6245-5.1677-113.6423-29.2728-168.5614-48.6414-58.613-20.6714-116.4076-34.3232-178.6785-24.2108-62.1266,10.0891-120.3675,35.626-181.0511,51.3753-66.9861,17.385-129.6511,13.9534-195.9644-4.8008-71.1405-20.1194-139.9251-48.8533-214.7975-50.709v-34c74.8103,1.6906,143.8493,29.6046,215.1379,49.1207,66.2358,18.1329,129.132,21.5021,195.9957,4.6545,60.5634-15.2601,118.7894-40.0632,180.7176-49.8186,62.2874-9.812,120.0262,3.7169,178.6403,24.3886,54.9191,19.3686,109.937,43.4737,168.5614,48.6414,58.1956,5.1299,114.0919-13.7513,168.0362-33.2814,55.3003-20.0211,111.9854-43.325,171.7126-43.6345,62.5369-.3239,121.7399,24.827,179.5907,45.6157,72.5139,26.0579,140.5177,41.2588,216.688,21.399,82.3228-21.4638,158.3353-64.4108,244.9196-67.0854v34Z"/><path class="c" d="M1920,520.1588c-86.5842,2.6746-162.5968,45.6216-244.9196,67.0854-76.1703,19.8597-144.1741,4.6589-216.688-21.399-57.8508-20.7888-117.0538-45.9396-179.5907-45.6157-59.7273,.3094-116.4124,23.6134-171.7126,43.6344-53.9443,19.5302-109.8406,38.4113-168.0362,33.2814-58.6245-5.1677-113.6423-29.2727-168.5614-48.6414-58.6563-20.6866-116.2883-34.0728-178.6225-24.4719-61.7691,9.5139-119.9951,33.7295-180.4606,48.6194-66.8261,16.4563-129.7867,13.1277-196.0197-4.5427-71.3973-19.0482-140.6414-46.2774-215.3887-47.9501v-34c74.8103,1.6906,143.8493,29.6046,215.1379,49.1207,66.2358,18.1329,129.132,21.5021,195.9957,4.6545,60.5634-15.2601,118.7894-40.0632,180.7176-49.8186,62.2874-9.812,120.0262,3.7169,178.6403,24.3886,54.9191,19.3686,109.937,43.4737,168.5614,48.6414,58.1956,5.1299,114.0919-13.7513,168.0362-33.2815,55.3003-20.021,111.9854-43.325,171.7126-43.6344,62.5369-.324,121.7399,24.8269,179.5907,45.6157,72.5139,26.0579,140.5177,41.2587,216.688,21.399,82.3228-21.4638,158.3353-64.4108,244.9196-67.0854v34Z"/><path class="c" d="M1920,380.7725c-86.5842,2.6746-162.5968,45.6216-244.9196,67.0854-76.1703,19.8597-144.1741,4.6589-216.688-21.399-57.8508-20.7888-117.0538-45.9396-179.5907-45.6157-59.7273,.3094-116.4124,23.6134-171.7126,43.6344-53.9443,19.5302-109.8406,38.4113-168.0362,33.2815-58.6245-5.1677-113.6423-29.2728-168.5614-48.6414-58.5971-20.6657-116.5691-34.6658-178.7802-23.7358-62.5854,10.9958-120.8571,38.1176-181.8336,55.0268-67.3406,18.674-129.3341,15.0977-195.8907-5.145-70.7827-21.528-138.9745-52.1288-213.987-54.4912v-34c75.0872,2.5267,143.019,33.946,213.6484,56.0716,66.6304,20.8729,128.3935,24.5013,195.8594,5.2906,61.1204-17.4038,119.3846-45.0987,182.1658-56.5767,62.1118-11.3557,120.3065,2.9242,178.8179,23.5597,54.9191,19.3686,109.937,43.4737,168.5614,48.6414,58.1956,5.1299,114.0919-13.7513,168.0362-33.2815,55.3003-20.021,111.9854-43.325,171.7126-43.6344,62.5369-.324,121.7399,24.8269,179.5907,45.6157,72.5139,26.0579,140.5177,41.2587,216.688,21.399,82.3228-21.4638,158.3353-64.4108,244.9196-67.0854v34Z"/><path class="c" d="M1920,241.3862c-86.5842,2.6746-162.5968,45.6216-244.9196,67.0854-76.1703,19.8597-144.1741,4.6589-216.688-21.399-57.8508-20.7887-117.0538-45.9396-179.5907-45.6157-59.7273,.3094-116.4124,23.6134-171.7126,43.6344-53.9443,19.5302-109.8406,38.4113-168.0362,33.2815-58.6245-5.1677-113.6423-29.2728-168.5614-48.6414-58.3865-20.5915-116.8353-35.1268-178.8211-23.5451-63.0552,11.7815-121.2863,40.4627-182.5614,58.4233-67.4021,19.7565-129.3257,16.1012-195.8229-5.461C142.8309,276.3031,75.2544,243.7109,0,241.3862v-34c75.2544,2.3246,142.8309,34.9168,213.2861,57.7624,66.4972,21.5622,128.4209,25.2176,195.8229,5.461,61.2751-17.9606,119.5062-46.6418,182.5614-58.4233,61.9858-11.5817,120.4346,2.9536,178.8211,23.5451,54.9191,19.3686,109.937,43.4737,168.5614,48.6414,58.1956,5.1299,114.0919-13.7513,168.0362-33.2815,55.3003-20.021,111.9854-43.325,171.7126-43.6344,62.5369-.324,121.7399,24.8269,179.5907,45.6157,72.5139,26.0579,140.5177,41.2587,216.688,21.399,82.3228-21.4638,158.3353-64.4108,244.9196-67.0854v34Z"/><path class="c" d="M1920,102c-86.5842,2.6746-162.5968,45.6216-244.9196,67.0854-76.1703,19.8597-144.1741,4.6589-216.688-21.399-57.8508-20.7887-117.0538-45.9396-179.5907-45.6157-59.7273,.3094-116.4124,23.6134-171.7126,43.6345-53.9443,19.5301-109.8406,38.4113-168.0362,33.2815-58.6245-5.1677-113.6423-29.2728-168.5614-48.6414-58.3865-20.5915-116.8353-35.1268-178.8211-23.5451-63.0552,11.7815-121.2863,40.4627-182.5614,58.4233-67.4021,19.7565-129.3257,16.1012-195.8229-5.461C142.8309,136.9168,75.2544,104.3246,0,102v-34c75.2544,2.3246,142.8309,34.9168,213.2861,57.7624,66.4972,21.5622,128.4209,25.2176,195.8229,5.461,61.2751-17.9606,119.5062-46.6418,182.5614-58.4233,61.9858-11.5817,120.4346,2.9536,178.8211,23.5451,54.9191,19.3686,109.937,43.4737,168.5614,48.6414,58.1956,5.1299,114.0919-13.7513,168.0362-33.2815,55.3003-20.021,111.9854-43.325,171.7126-43.6344,62.5369-.324,121.7399,24.8269,179.5907,45.6157,72.5139,26.0579,140.5177,41.2587,216.688,21.399,82.3228-21.4638,158.3353-64.4108,244.9196-67.0854v34Z"/></g><g><path class="h" d="M1920,1111.7037c-86.5842,2.6746-162.5968,45.6216-244.9196,67.0853-76.1703,19.8597-144.1741,4.6589-216.688-21.3989-57.8508-20.7888-117.0538-45.9397-179.5907-45.6157-59.7273,.3094-116.4124,23.6134-171.7126,43.6344-53.9443,19.5302-109.8406,38.4114-168.0362,33.2815-58.6245-5.1677-113.6423-29.2727-168.5614-48.6414-58.3865-20.5916-116.8353-35.1268-178.8211-23.5452-63.0552,11.7816-121.2863,40.4628-182.5614,58.4233-67.4021,19.7566-129.3257,16.1012-195.8229-5.4609-70.4552-22.8456-138.0317-55.4379-213.2861-57.7625,0-11.3334,0-22.6667,0-34,75.2544,2.3246,142.8309,34.9169,213.2861,57.7625,66.4972,21.5621,128.4209,25.2175,195.8229,5.4609,61.2751-17.9606,119.5062-46.6417,182.5614-58.4233,61.9858-11.5817,120.4346,2.9536,178.8211,23.5451,54.9191,19.3687,109.937,43.4738,168.5614,48.6414,58.1956,5.1299,114.0919-13.7513,168.0362-33.2814,55.3003-20.0211,111.9854-43.3251,171.7126-43.6345,62.5369-.3239,121.7399,24.827,179.5907,45.6157,72.5139,26.0579,140.5177,41.2587,216.688,21.3989,82.3228-21.4637,158.3353-64.4107,244.9196-67.0853v34Z"/><path class="h" d="M1920,972.3174c-86.5842,2.6746-162.5968,45.6216-244.9196,67.0854-76.1703,19.8597-144.1741,4.6589-216.688-21.399-57.8508-20.7887-117.0538-45.9396-179.5907-45.6157-59.7273,.3094-116.4124,23.6134-171.7126,43.6345-53.9443,19.5302-109.8406,38.4113-168.0362,33.2814-58.6245-5.1677-113.6423-29.2728-168.5614-48.6414-58.3865-20.5915-116.8353-35.1268-178.8211-23.5451-63.0552,11.7816-121.2863,40.4627-182.5614,58.4233-67.4021,19.7565-129.3257,16.1011-195.8229-5.4611-70.4552-22.8456-138.0317-55.4377-213.2861-57.7624v-34c75.2544,2.3246,142.8309,34.9168,213.2861,57.7624,66.4972,21.5622,128.4209,25.2176,195.8229,5.4611,61.2751-17.9606,119.5062-46.6418,182.5614-58.4233,61.9858-11.5817,120.4346,2.9536,178.8211,23.5451,54.9191,19.3686,109.937,43.4737,168.5614,48.6414,58.1956,5.1299,114.0919-13.7513,168.0362-33.2814,55.3003-20.0211,111.9854-43.325,171.7126-43.6345,62.5369-.3239,121.7399,24.827,179.5907,45.6157,72.5139,26.0579,140.5177,41.2588,216.688,21.399,82.3228-21.4638,158.3353-64.4108,244.9196-67.0854v34Z"/><path class="h" d="M1920,832.9312c-86.5842,2.6746-162.5968,45.6216-244.9196,67.0854-76.1703,19.8597-144.1741,4.6589-216.688-21.399-57.8508-20.7887-117.0538-45.9396-179.5907-45.6157-59.7273,.3094-116.4124,23.6134-171.7126,43.6345-53.9443,19.5302-109.8406,38.4113-168.0362,33.2814-58.6245-5.1677-113.6423-29.2728-168.5614-48.6414-58.389-20.5923-116.834-35.1252-178.8219-23.5413-63.0534,11.783-121.2854,40.4567-182.5598,58.4155-67.4065,19.756-129.321,16.1002-195.8231-5.4604-70.4557-22.8423-138.0346-55.4257-213.2868-57.759v-34c75.1674,2.5414,142.8866,34.6436,213.4003,57.2292,66.6247,21.34,128.3331,24.9976,195.8357,5.4014,61.2181-17.7718,119.4754-46.0405,182.4203-57.7648,62.0593-11.5594,120.3675,2.8593,178.8351,23.4794,54.9191,19.3686,109.937,43.4737,168.5614,48.6414,58.1956,5.1299,114.0919-13.7513,168.0362-33.2814,55.3003-20.0211,111.9854-43.325,171.7126-43.6345,62.5369-.3239,121.7399,24.827,179.5907,45.6157,72.5139,26.0579,140.5177,41.2588,216.688,21.399,82.3228-21.4638,158.3353-64.4108,244.9196-67.0854v34Z"/><path class="h" d="M1920,693.545c-86.5842,2.6746-162.5968,45.6216-244.9196,67.0854-76.1703,19.8597-144.1741,4.6589-216.688-21.399-57.8508-20.7887-117.0538-45.9396-179.5907-45.6157-59.7273,.3094-116.4124,23.6134-171.7126,43.6345-53.9443,19.5302-109.8406,38.4113-168.0362,33.2814-58.6245-5.1677-113.6423-29.2728-168.5614-48.6414-58.605-20.6685-116.4839-34.4873-178.7269-23.9846-62.3443,10.5197-120.6007,36.8126-181.4238,53.114-67.1536,17.998-129.5,14.4955-195.9293-4.9647-70.9713-20.7908-139.4748-50.4136-214.4116-52.5099v-34c74.8724,1.8557,143.657,30.5896,214.7975,50.709,66.3133,18.7542,128.9783,22.1858,195.9644,4.8008,60.6837-15.7493,118.9246-41.2862,181.0511-51.3753,62.2709-10.1124,120.0654,3.5394,178.6785,24.2108,54.9191,19.3686,109.937,43.4737,168.5614,48.6414,58.1956,5.1299,114.0919-13.7513,168.0362-33.2814,55.3003-20.0211,111.9854-43.325,171.7126-43.6345,62.5369-.3239,121.7399,24.827,179.5907,45.6157,72.5139,26.0579,140.5177,41.2588,216.688,21.399,82.3228-21.4638,158.3353-64.4108,244.9196-67.0854v34Z"/><path class="h" d="M1920,554.1588c-86.5842,2.6746-162.5968,45.6216-244.9196,67.0854-76.1703,19.8597-144.1741,4.6589-216.688-21.399-57.8508-20.7887-117.0538-45.9396-179.5907-45.6156-59.7273,.3094-116.4124,23.6134-171.7126,43.6344-53.9443,19.5302-109.8406,38.4113-168.0362,33.2814-58.6245-5.1677-113.6423-29.2728-168.5614-48.6414-58.7311-20.713-116.2338-33.9836-178.6349-24.414-61.6658,9.4568-119.9091,33.2541-180.3178,47.9532-66.9121,16.2816-129.6919,12.9578-196.0327-4.4822-71.4496-18.783-140.827-45.5287-215.5061-47.4022v-34c74.7473,1.6727,143.9914,28.9019,215.3887,47.9501,66.233,17.6704,129.1936,20.999,196.0197,4.5427,60.4655-14.89,118.6915-39.1055,180.4606-48.6194,62.3342-9.6009,119.9662,3.7853,178.6225,24.4719,54.9191,19.3686,109.937,43.4737,168.5614,48.6414,58.1956,5.1299,114.0919-13.7513,168.0362-33.2814,55.3003-20.021,111.9854-43.325,171.7126-43.6344,62.5369-.324,121.7399,24.8269,179.5907,45.6157,72.5139,26.0579,140.5177,41.2588,216.688,21.399,82.3228-21.4638,158.3353-64.4108,244.9196-67.0854v34Z"/><path class="h" d="M1920,414.7725c-86.5842,2.6746-162.5968,45.6216-244.9196,67.0854-76.1703,19.8597-144.1741,4.6589-216.688-21.399-57.8508-20.7888-117.0538-45.9396-179.5907-45.6157-59.7273,.3094-116.4124,23.6134-171.7126,43.6344-53.9443,19.5302-109.8406,38.4113-168.0362,33.2815-58.6245-5.1677-113.6423-29.2728-168.5614-48.6414-58.6045-20.6683-116.4916-34.5038-178.7319-23.9613-62.3664,10.5639-120.6243,36.933-181.4615,53.2905-67.1712,18.0605-129.4842,14.5509-195.9257-4.9813-70.954-20.8588-139.429-50.5714-214.3723-52.6931v-34c75.0125,2.3624,143.2044,32.9632,213.987,54.4912,66.5565,20.2427,128.55,23.8189,195.8907,5.145,60.9765-16.9091,119.2482-44.031,181.8336-55.0268,62.2111-10.93,120.1831,3.0701,178.7802,23.7358,54.9191,19.3686,109.937,43.4737,168.5614,48.6414,58.1956,5.1299,114.0919-13.7513,168.0362-33.2815,55.3003-20.021,111.9854-43.325,171.7126-43.6344,62.5369-.324,121.7399,24.8269,179.5907,45.6157,72.5139,26.0579,140.5177,41.2587,216.688,21.399,82.3228-21.4638,158.3353-64.4108,244.9196-67.0854v34Z"/><path class="h" d="M1920,275.3862c-86.5842,2.6746-162.5968,45.6216-244.9196,67.0854-76.1703,19.8597-144.1741,4.6589-216.688-21.399-57.8508-20.7887-117.0538-45.9396-179.5907-45.6157-59.7273,.3094-116.4124,23.6134-171.7126,43.6344-53.9443,19.5302-109.8406,38.4113-168.0362,33.2815-58.6245-5.1677-113.6423-29.2728-168.5614-48.6414-58.3865-20.5915-116.8353-35.1268-178.8211-23.5451-63.0552,11.7815-121.2863,40.4627-182.5614,58.4233-67.4021,19.7565-129.3257,16.1012-195.8229-5.461-70.4552-22.8456-138.0317-55.4378-213.2861-57.7624v-34c75.2544,2.3246,142.8309,34.9168,213.2861,57.7624,66.4972,21.5622,128.4209,25.2176,195.8229,5.461,61.2751-17.9606,119.5062-46.6418,182.5614-58.4233,61.9858-11.5817,120.4346,2.9536,178.8211,23.5451,54.9191,19.3686,109.937,43.4737,168.5614,48.6414,58.1956,5.1299,114.0919-13.7513,168.0362-33.2815,55.3003-20.021,111.9854-43.325,171.7126-43.6344,62.5369-.324,121.7399,24.8269,179.5907,45.6157,72.5139,26.0579,140.5177,41.2587,216.688,21.399,82.3228-21.4638,158.3353-64.4108,244.9196-67.0854v34Z"/><path class="h" d="M1920,136c-86.5842,2.6746-162.5968,45.6216-244.9196,67.0854-76.1703,19.8597-144.1741,4.6589-216.688-21.399-57.8508-20.7887-117.0538-45.9396-179.5907-45.6157-59.7273,.3094-116.4124,23.6134-171.7126,43.6345-53.9443,19.5301-109.8406,38.4113-168.0362,33.2815-58.6245-5.1677-113.6423-29.2728-168.5614-48.6414-58.3865-20.5915-116.8353-35.1268-178.8211-23.5451-63.0552,11.7815-121.2863,40.4627-182.5614,58.4233-67.4021,19.7565-129.3257,16.1012-195.8229-5.461C142.8309,170.9168,75.2544,138.3246,0,136v-34c75.2544,2.3246,142.8309,34.9168,213.2861,57.7624,66.4972,21.5622,128.4209,25.2176,195.8229,5.461,61.2751-17.9606,119.5062-46.6418,182.5614-58.4233,61.9858-11.5817,120.4346,2.9536,178.8211,23.5451,54.9191,19.3686,109.937,43.4737,168.5614,48.6414,58.1956,5.1299,114.0919-13.7513,168.0362-33.2815,55.3003-20.021,111.9854-43.325,171.7126-43.6345,62.5369-.324,121.7399,24.8269,179.5907,45.6157,72.5139,26.0579,140.5177,41.2588,216.688,21.399,82.3228-21.4638,158.3353-64.4108,244.9196-67.0854v34Z"/></g></g></g></svg>