<?xml version="1.0" encoding="UTF-8"?><svg xmlns="http://www.w3.org/2000/svg" width="1920" height="1077" viewBox="0 0 1920 1077"><defs><style>.c{fill:#f5a44f;}.d{fill:#e55452;}.e{fill:#6d1919;}.f{fill:#fffefc;}</style></defs><g id="a"><rect class="f" width="1920" height="981"/></g><g id="b"><g><path class="c" d="M1920,972c-87.1495,2.8646-162.5688,48.5406-244.9196,71.3857-76.5355,21.2319-144.2711,4.9203-216.688-22.7708-57.5779-22.0169-116.7433-48.8861-179.5907-48.5397-60.0195,.3307-116.6709,25.2267-171.7126,46.4315-53.6664,20.6749-109.5848,40.8964-168.0362,35.4149-58.9122-5.5247-113.8135-31.2136-168.5614-51.7594-58.1876-21.8367-116.5776-37.429-178.8211-25.0544-63.3206,12.5886-121.2417,43.043-182.5614,62.1684-67.5771,21.077-129.267,17.1531-195.8229-5.8111-70.3248-24.2646-137.5593-58.976-213.2861-61.4651v-31c75.5577,2.3903,142.9128,36.3469,213.2861,60.095,66.5145,22.4459,128.3298,26.2679,195.8229,5.683,61.3039-18.6972,119.3354-48.5225,182.5614-60.8013,62.307-12.1003,120.5861,3.3311,178.8211,25.1856,54.7479,20.5458,109.6492,46.2347,168.5614,51.7594,58.4514,5.4816,114.3698-14.7399,168.0362-35.4149,55.0417-21.2048,111.6931-46.1008,171.7126-46.4315,62.8474-.3464,122.0128,26.5228,179.5907,48.5397,72.4169,27.691,140.1525,44.0027,216.688,22.7708,82.3507-22.8452,157.77-68.5211,244.9196-71.3857v31Z"/><path class="e" d="M1920,910c-87.1495,2.8646-162.5688,48.5406-244.9196,71.3857-76.5355,21.2319-144.2711,4.9203-216.688-22.7708-57.5779-22.0169-116.7433-48.8861-179.5907-48.5397-60.0195,.3307-116.6709,25.2267-171.7126,46.4315-53.6664,20.6749-109.5848,40.8964-168.0362,35.4149-58.9122-5.5247-113.8135-31.2136-168.5614-51.7594-58.1951-21.8395-116.5712-37.4218-178.8211-25.0457-63.3147,12.5878-121.2427,43.0083-182.5614,62.1206-67.5886,21.0665-129.2534,17.144-195.8229-5.8068-70.3273-24.2465-137.5689-58.9174-213.2861-61.4304v-31c75.7267,2.4891,142.9612,37.2005,213.2861,61.4651,66.5559,22.9642,128.2459,26.8881,195.8229,5.8111,61.3197-19.1254,119.2409-49.5798,182.5614-62.1684,62.2435-12.3746,120.6335,3.2177,178.8211,25.0544,54.7479,20.5458,109.6492,46.2347,168.5614,51.7594,58.4514,5.4816,114.3698-14.7399,168.0362-35.4149,55.0417-21.2048,111.6931-46.1008,171.7126-46.4315,62.8474-.3464,122.0128,26.5228,179.5907,48.5397,72.4169,27.691,140.1525,44.0027,216.688,22.7708,82.3507-22.8452,157.77-68.5211,244.9196-71.3857v31Z"/><path class="d" d="M1920,941c-87.1495,2.8646-162.5688,48.5406-244.9196,71.3857-76.5355,21.2319-144.2711,4.9203-216.688-22.7708-57.5779-22.0169-116.7433-48.8861-179.5907-48.5397-60.0195,.3307-116.6709,25.2267-171.7126,46.4315-53.6664,20.6749-109.5848,40.8964-168.0362,35.4149-58.9122-5.5247-113.8135-31.2136-168.5614-51.7594-58.235-21.8545-116.5141-37.2859-178.8211-25.1856-63.226,12.2789-121.2575,42.1041-182.5614,60.8013-67.4932,20.5849-129.3085,16.7629-195.8229-5.683-70.3733-23.7481-137.7284-57.7047-213.2861-60.095v-31c75.7172,2.5129,142.9588,37.1838,213.2861,61.4304,66.5695,22.9509,128.2343,26.8734,195.8229,5.8068,61.3187-19.1123,119.2467-49.5328,182.5614-62.1206,62.2499-12.3762,120.626,3.2062,178.8211,25.0457,54.7479,20.5458,109.6492,46.2347,168.5614,51.7594,58.4514,5.4816,114.3698-14.7399,168.0362-35.4149,55.0417-21.2048,111.6931-46.1008,171.7126-46.4315,62.8474-.3464,122.0128,26.5228,179.5907,48.5397,72.4169,27.691,140.1525,44.0027,216.688,22.7708,82.3507-22.8452,157.77-68.5211,244.9196-71.3857v31Z"/><path class="f" d="M1920,994c-87.1495,2.8646-162.5688,48.5406-244.9196,71.3857-76.5355,21.2319-144.2711,4.9203-216.688-22.7708-57.5779-22.0169-116.7433-48.8861-179.5907-48.5397-60.0195,.3307-116.6709,25.2267-171.7126,46.4315-53.6664,20.6749-109.5848,40.8964-168.0362,35.4149-58.9122-5.5247-113.8135-31.2136-168.5614-51.7594-58.1876-21.8367-116.5776-37.429-178.8211-25.0544-63.3206,12.5886-121.2417,43.043-182.5614,62.1684-67.5771,21.077-129.267,17.1531-195.8229-5.8111-70.3248-24.2646-137.5593-58.976-213.2861-61.4651v-31c75.7172,2.5129,142.9588,37.1838,213.2861,61.4304,66.5695,22.9509,128.2343,26.8734,195.8229,5.8068,61.3187-19.1123,119.2467-49.5328,182.5614-62.1206,62.2499-12.3762,120.626,3.2062,178.8211,25.0457,54.7479,20.5458,109.6492,46.2347,168.5614,51.7594,58.4514,5.4816,114.3698-14.7399,168.0362-35.4149,55.0417-21.2048,111.6931-46.1008,171.7126-46.4315,62.8474-.3464,122.0128,26.5228,179.5907,48.5397,72.4169,27.691,140.1525,44.0027,216.688,22.7708,82.3507-22.8452,157.77-68.5211,244.9196-71.3857v31Z"/></g></g></svg>