<?xml version="1.0" encoding="UTF-8"?><svg id="a" xmlns="http://www.w3.org/2000/svg" width="1630" height="944.9603" xmlns:xlink="http://www.w3.org/1999/xlink" viewBox="0 0 1630 944.9603"><defs><style>.c{fill:#e25677;}.d{fill:#6e2482;}.e{fill:#fefffa;}.f{clip-path:url(#b);}.g{fill:#faae42;}.h{fill:none;}</style><clipPath id="b"><rect class="h" x="360" y="128.4943" width="883" height="638"/></clipPath></defs><g class="f"><g><g><path class="d" d="M1630,766.5758c-80.4509,4.8458-139.8146,66.5361-211.3525,96.3047-66.1835,27.5404-122.333,2.5839-180.1665-32.076-45.6041-27.3307-95.7478-64.3354-151.332-64.0956-53.2034,.2296-100.9854,34.3091-144.7277,60.7361-43.9523,26.5539-93.3325,56.4018-146.8417,47.2676-52.1738-8.9062-97.3762-43.5799-142.0844-69.5692-45.0724-26.2009-93.189-48.1938-145.8776-32.6813-54.952,16.1789-100.0587,55.1941-150.7611,80.4108-27.9533,13.9025-59.1835,24.7442-90.8755,21.289-29.4417-3.2099-57.0555-17.5901-82.16-32.373-58.2143-34.2795-113.6003-84.8591-183.8208-89.4795v-24.1916c70.4658,4.6423,126.3124,55.1655,184.8104,89.5009,25.2104,14.7972,52.8954,29.2483,82.4122,32.6083,31.7176,3.6105,63.0156-6.8972,91.0606-20.7617,50.3629-24.8978,94.9666-63.8177,149.4866-79.8663,52.5897-15.4803,100.7552,6.5986,145.7253,32.7402,44.7083,25.9893,89.9106,60.663,142.0844,69.5692,53.5092,9.1342,102.8895-20.7137,146.8417-47.2676,43.7423-26.427,91.5243-60.5065,144.7277-60.7361,55.5842-.2399,105.7279,36.7648,151.332,64.0956,57.8335,34.6599,113.983,59.6164,180.1665,32.076,71.538-29.7686,130.9016-91.4589,211.3525-96.3047v22.8043Z"/><path class="d" d="M1630,673.6043c-80.4509,4.8458-139.8146,66.5361-211.3525,96.3047-66.1835,27.5404-122.333,2.5839-180.1665-32.076-45.6041-27.3307-95.7478-64.3354-151.332-64.0956-53.2034,.2296-100.9854,34.3091-144.7277,60.7361-43.9523,26.5539-93.3325,56.4018-146.8417,47.2676-52.1738-8.9062-97.3762-43.5799-142.0844-69.5692-44.9022-26.102-92.7487-47.9898-145.2694-32.9101-53.222,15.281-96.39,54.3524-145.6162,78.2361-62.3455,30.2491-116.5254,19.7229-174.8143-14.1623-59.3523-34.5034-116.5889-84.8472-187.7952-89.5517v-23.6396c71.3459,4.6959,128.9367,54.9639,188.4595,89.4918,58.2872,33.8112,112.7405,44.93,175.2302,14.7576,48.9825-23.6506,91.7301-62.6933,144.6196-77.935,52.4575-15.1171,100.3433,6.8416,145.1858,32.9089,44.7083,25.9893,89.9106,60.663,142.0844,69.5692,53.5092,9.1342,102.8895-20.7137,146.8417-47.2676,43.7423-26.427,91.5243-60.5065,144.7277-60.7361,55.5842-.2399,105.7279,36.7648,151.332,64.0956,57.8335,34.6599,113.983,59.6164,180.1665,32.076,71.538-29.7686,130.9016-91.4589,211.3525-96.3047v22.8043Z"/><path class="d" d="M1630,580.6329c-80.4509,4.8458-139.8146,66.5361-211.3525,96.3047-66.1835,27.5404-122.333,2.5839-180.1665-32.076-45.6041-27.3307-95.7478-64.3354-151.332-64.0956-53.2034,.2296-100.9854,34.3091-144.7277,60.7361-43.9523,26.5539-93.3325,56.4018-146.8417,47.2676-52.1738-8.9062-97.3762-43.5799-142.0844-69.5692-44.816-26.0519-92.7249-48.0418-145.1556-32.9175-52.9369,15.2703-95.7194,54.4329-144.7225,78.1611-62.4889,30.2583-117.275,19.8817-175.7638-13.9095-59.2949-34.2568-116.2688-84.0021-187.2414-88.8218,.2238-8.3607,.3585-12.4636,.6474-20.6033,70.5428,4.7247,126.9012,54.1331,185.8497,88.1072,58.569,33.7554,113.357,43.204,175.6785,12.8785,49.2028-23.942,92.2799-63.2258,145.4803-78.5848,52.474-15.1493,100.3658,6.8073,145.2275,32.8858,44.7083,25.9893,89.9106,60.663,142.0844,69.5692,53.5092,9.1342,102.8895-20.7137,146.8417-47.2676,43.7423-26.427,91.5243-60.5065,144.7277-60.7361,55.5842-.2399,105.7279,36.7648,151.332,64.0956,57.8335,34.6599,113.983,59.6164,180.1665,32.076,71.538-29.7686,130.9016-91.4589,211.3525-96.3047v22.8043Z"/><path class="d" d="M1630,487.6615c-80.4509,4.8458-139.8146,66.5362-211.3525,96.3047-66.1835,27.5404-122.333,2.5839-180.1665-32.076-45.6041-27.3307-95.7478-64.3354-151.332-64.0956-53.2034,.2296-100.9854,34.3091-144.7277,60.7361-43.9523,26.5539-93.3325,56.4018-146.8417,47.2676-52.1738-8.9062-97.3762-43.5799-142.0844-69.5692-44.9869-26.1512-92.9613-48.1279-145.5459-32.7032-54.1484,15.8834-98.2164,55.5007-148.2053,80.233-61.6661,30.5096-116.4562,24.3343-175.2395-9.2354-57.6368-32.9149-111.8767-81.1179-180.8194-85.333,.2925-8.1271,.4297-12.2217,.6596-20.5616,68.5083,4.1172,122.1204,51.9751,179.4065,84.6022,58.8456,33.5153,113.6753,38.7475,175.1493,8.191,50.1929-24.949,94.5582-64.6889,148.9742-80.6664,52.6289-15.4528,100.5866,6.4905,145.6205,32.6691,44.7083,25.9893,89.9106,60.663,142.0844,69.5692,53.5092,9.1342,102.8895-20.7137,146.8417-47.2676,43.7423-26.427,91.5243-60.5065,144.7277-60.7361,55.5842-.2399,105.7279,36.7649,151.332,64.0956,57.8335,34.6599,113.983,59.6164,180.1665,32.076,71.538-29.7686,130.9016-91.4589,211.3525-96.3047v22.8043Z"/><path class="d" d="M1630,394.69c-80.4509,4.8459-139.8146,66.5362-211.3525,96.3047-66.1835,27.5404-122.333,2.5839-180.1665-32.076-45.6041-27.3307-95.7478-64.3354-151.332-64.0956-53.2034,.2296-100.9854,34.309-144.7277,60.7361-43.9523,26.5539-93.3325,56.4018-146.8417,47.2676-52.1738-8.9062-97.3762-43.5799-142.0844-69.5692-45.0679-26.1984-92.9923-48.0683-145.6684-32.7353-54.8695,15.9716-99.8332,55.7438-150.3283,81.0227-61.1646,30.6202-115.8578,26.6237-174.7467-6.8703-56.9831-32.4101-109.7695-80.0403-177.9176-84.2172-.1276-9.3003-.2219-13.9933-.4458-23.4284,68.3046,4.1776,121.2607,52.101,178.317,84.6623,58.8228,33.5694,113.1919,37.7087,174.3354,7.0751,50.6748-25.3887,95.7425-64.8007,150.7333-81.0455,52.5609-15.527,100.7772,6.6059,145.7212,32.7323,44.7083,25.9893,89.9106,60.6629,142.0844,69.5692,53.5092,9.1342,102.8895-20.7136,146.8417-47.2675,43.7423-26.427,91.5243-60.5065,144.7277-60.7361,55.5842-.2399,105.7279,36.7648,151.332,64.0956,57.8335,34.6599,113.983,59.6164,180.1665,32.076,71.538-29.7686,130.9016-91.4589,211.3525-96.3047v22.8043Z"/><path class="d" d="M1630,301.7186c-80.4509,4.8459-139.8146,66.5362-211.3525,96.3047-66.1835,27.5404-122.333,2.5839-180.1665-32.076-45.6041-27.3307-95.7478-64.3354-151.332-64.0956-53.2034,.2296-100.9854,34.3091-144.7277,60.7361-43.9523,26.5539-93.3325,56.4018-146.8417,47.2676-52.1738-8.9063-97.3762-43.5799-142.0844-69.5692-45.0653-26.1969-93.1953-48.1864-145.8836-32.7231-55.3862,16.2551-100.9946,55.51-151.9792,81.1157-28.2211,14.1733-59.7166,25.4793-91.8138,22.5606-29.186-2.6539-56.6092-16.2428-81.5677-30.7022-57.471-33.2951-111.1116-82.3794-180.1588-86.8899-.3238-9.575-.4844-14.3608-.777-23.892,69.297,4.6307,123.1656,54.1005,180.7777,87.6424,24.99,14.5492,52.4709,28.2928,81.73,31.0163,31.9443,2.9735,63.2813-8.4049,91.3518-22.5137,51.0854-25.6766,96.8697-64.8801,152.3842-81.1385,52.7295-15.4428,100.8318,6.5005,145.9364,32.7202,44.7083,25.9893,89.9106,60.6629,142.0844,69.5692,53.5092,9.1342,102.8895-20.7137,146.8417-47.2676,43.7423-26.427,91.5243-60.5064,144.7277-60.7361,55.5842-.2399,105.7279,36.7648,151.332,64.0956,57.8335,34.6599,113.983,59.6164,180.1665,32.076,71.538-29.7686,130.9016-91.4589,211.3525-96.3047v22.8043Z"/><path class="d" d="M1630,208.7472c-80.4509,4.8459-139.8146,66.5362-211.3525,96.3047-66.1835,27.5404-122.333,2.5839-180.1665-32.076-45.6041-27.3307-95.7478-64.3354-151.332-64.0956-53.2034,.2296-100.9854,34.3091-144.7277,60.7361-43.9523,26.5539-93.3325,56.4018-146.8417,47.2676-52.1738-8.9063-97.3762-43.5799-142.0844-69.5692-45.2247-26.2895-93.2432-48.0912-146.0988-32.711-55.9088,16.2686-102.2348,55.3131-153.6302,81.2086-27.6335,13.9231-58.3948,25.4201-89.8895,22.4265-29.3547-2.7902-56.9075-16.8392-81.9076-31.5324C124.148,252.7235,69.7576,202.3615,0,197.7472v-22.4392c69.6755,4.7777,124.0912,54.7755,181.9691,88.6304,25.0178,14.6339,52.5781,28.6377,81.9076,31.4696,31.4126,3.033,62.2983-8.5959,89.89-22.3921,51.4116-25.7064,97.8445-64.3342,153.6678-80.5701,52.8102-15.3596,100.7865,6.3813,146.086,32.4935,44.7729,25.8087,89.9703,60.0829,142.0552,69.0721,53.2646,9.1928,102.9394-20.6876,146.8727-46.8623,43.7386-26.0588,91.7976-59.9715,144.7699-60.2081,55.3151-.2471,105.7285,36.5618,151.2863,63.5233,57.8715,34.2489,114.1279,59.2538,180.1431,31.7834,71.538-29.7686,130.9016-91.4589,211.3525-96.3047v22.8043Z"/><path class="d" d="M1630,115.7757c-80.4509,4.8459-139.8146,66.5362-211.3525,96.3047-64.7378,26.9388-121.6614,3.8763-179.8198-27.7423-46.2655-25.1528-96.1868-58.1835-150.8419-57.9693-52.516,.2058-100.549,30.6977-145.1917,54.936-44.7917,24.3192-94.4833,51.1869-147.2091,42.7006-51.5927-8.3039-96.8619-40.5555-141.8168-65.021-45.6714-24.8555-93.5418-44.8611-145.9734-30.5783-55.4894,15.1159-102.4417,51.6729-153.9437,75.8789-27.8631,13.0957-58.7005,23.8729-89.9745,20.9918-29.2108-2.691-56.7575-16.1338-81.9076-30.3445C123.8574,162.0969,69.2504,113.8491,0,109.3781v-21.009c69.0897,4.2642,123.7744,51.8597,181.9691,84.2772,25.2031,14.0394,52.7403,27.2443,81.9076,29.8538,31.2459,2.7954,62.0111-7.5428,90.0131-20.3628,51.5366-23.5949,98.6819-59.3689,154.055-73.988,52.275-13.8012,100.1223,5.4473,145.9268,29.7884,45.0113,23.9196,90.3145,55.4075,141.7195,63.3658,52.5848,8.1409,102.169-17.3613,147.3508-40.9565,45.0481-23.5254,92.9633-52.543,145.3679-52.7325,54.4602-.1969,104.0604,31.2124,150.6567,55.6547,58.2585,30.5597,115.4561,52.7325,179.681,26.0071,71.538-29.7686,130.9016-91.4589,211.3525-96.3047v22.8043Z"/><path class="d" d="M1630,22.8043c-80.4509,4.8458-139.8146,66.5362-211.3525,96.3047-62.9825,26.2085-120.8951,5.8539-179.3578-21.966-47.2252-22.4725-96.4121-50.2673-150.2124-50.1007-51.9816,.161-99.905,25.8957-145.7897,47.4603-45.9691,21.6043-95.5951,44.2497-147.6871,36.7947-50.923-7.2877-96.2996-36.7681-141.4812-59.3147-46.1406-23.0253-93.9178-40.6201-145.8142-27.8731-55.0535,13.5224-102.7072,47.2042-154.3309,69.2968-61.2273,26.2025-113.6751,21.5659-172.0051-9.7662C123.5517,72.2612,68.6662,26.402,0,22.4392V0C68.5832,4.1242,123.5025,49.6299,181.9691,80.8721c25.3492,13.5456,52.8794,26.1539,81.9076,28.6658,31.0439,2.6863,61.88-6.9597,90.098-18.9282,51.6373-21.9017,99.3928-55.1629,154.3684-68.6582,51.8568-12.7298,99.5927,4.824,145.8014,27.6557,45.2365,22.3513,90.6149,51.4467,141.452,58.8176,51.8716,7.5209,101.7834-15.178,147.7181-36.3894,45.8671-21.1803,94.0568-46.7651,145.8319-46.9324,53.5476-.173,103.0028,27.446,150.1666,49.5284,58.4878,27.3844,116.5043,47.8184,179.3344,21.6734,71.538-29.7686,130.9016-91.4589,211.3525-96.3047V22.8043Z"/></g><g><path class="c" d="M1630,789.3801c-80.4509,4.8458-139.8146,66.5361-211.3525,96.3047-66.1835,27.5404-122.333,2.5839-180.1665-32.076-45.6041-27.3307-95.7478-64.3354-151.332-64.0956-53.2034,.2296-100.9854,34.3091-144.7277,60.7361-43.9523,26.5539-93.3325,56.4018-146.8417,47.2676-52.1738-8.9062-97.3762-43.5799-142.0844-69.5692-45.1566-26.2499-93.23-48.1643-146.0023-32.6466-55.3442,16.2739-100.9202,55.354-151.9238,80.8572-27.8547,13.9282-58.9897,25.0666-90.64,21.7638-29.3864-3.0666-56.9469-17.3774-81.9669-32.1525-57.977-34.2372-112.942-84.8799-182.9621-89.4907v-23.9696c70.2205,4.6204,125.6066,55.2,183.8208,89.4795,25.1046,14.7828,52.7183,29.1631,82.16,32.373,31.692,3.4552,62.9222-7.3865,90.8755-21.289,50.7024-25.2167,95.8091-64.2319,150.7611-80.4108,52.6886-15.5125,100.8052,6.4804,145.8776,32.6813,44.7083,25.9893,89.9106,60.663,142.0844,69.5692,53.5092,9.1342,102.8895-20.7137,146.8417-47.2676,43.7423-26.427,91.5243-60.5065,144.7277-60.7361,55.5842-.2399,105.7279,36.7648,151.332,64.0956,57.8335,34.6599,113.983,59.6164,180.1665,32.076,71.538-29.7686,130.9016-91.4589,211.3525-96.3047v22.8043Z"/><path class="c" d="M1630,696.4086c-80.4509,4.8458-139.8146,66.5361-211.3525,96.3047-66.1835,27.5404-122.333,2.5839-180.1665-32.076-45.6041-27.3307-95.7478-64.3354-151.332-64.0956-53.2034,.2296-100.9854,34.3091-144.7277,60.7361-43.9523,26.5539-93.3325,56.4018-146.8417,47.2676-52.1738-8.9062-97.3762-43.5799-142.0844-69.5692-44.912-26.1078-92.8636-48.0612-145.3969-32.873-53.6147,15.5009-97.2236,54.5052-146.7901,78.6924-62.21,30.3571-116.0692,20.5355-174.3848-13.4603-59.1089-34.4583-115.9257-84.8663-186.9234-89.5598v-23.9916c71.2063,4.7045,128.4429,55.0483,187.7952,89.5517,58.2889,33.8852,112.4688,44.4114,174.8143,14.1623,49.2262-23.8838,92.3942-62.9551,145.6162-78.2361,52.5207-15.0797,100.3672,6.8081,145.2694,32.9101,44.7083,25.9893,89.9106,60.663,142.0844,69.5692,53.5092,9.1342,102.8895-20.7137,146.8417-47.2676,43.7423-26.427,91.5243-60.5065,144.7277-60.7361,55.5842-.2399,105.7279,36.7648,151.332,64.0956,57.8335,34.6599,113.983,59.6164,180.1665,32.076,71.538-29.7686,130.9016-91.4589,211.3525-96.3047v22.8043Z"/><path class="c" d="M1630,603.4372c-80.4509,4.8458-139.8146,66.5361-211.3525,96.3047-66.1835,27.5404-122.333,2.5839-180.1665-32.076-45.6041-27.3307-95.7478-64.3354-151.332-64.0956-53.2034,.2296-100.9854,34.3091-144.7277,60.7361-43.9523,26.5539-93.3325,56.4018-146.8417,47.2676-52.1738-8.9062-97.3762-43.5799-142.0844-69.5692-44.799-26.0421-92.7173-48.054-145.1288-32.9097-52.7388,15.2388-95.2815,54.3291-144.1475,77.8972-62.6067,30.1953-117.3606,19.0821-175.7671-14.7217-59.5246-34.4509-117.0145-84.4584-188.2857-89.2691,.1276-8.688,.2219-12.928,.4458-21.2887,70.9726,4.8197,127.9466,54.5649,187.2414,88.8218,58.4888,33.7912,113.275,44.1678,175.7638,13.9095,49.0031-23.7283,91.7856-62.8909,144.7225-78.1611,52.4308-15.1243,100.3396,6.8656,145.1556,32.9175,44.7083,25.9893,89.9106,60.663,142.0844,69.5692,53.5092,9.1342,102.8895-20.7137,146.8417-47.2676,43.7423-26.427,91.5243-60.5065,144.7277-60.7361,55.5842-.2399,105.7279,36.7648,151.332,64.0956,57.8335,34.6599,113.983,59.6164,180.1665,32.076,71.538-29.7686,130.9016-91.4589,211.3525-96.3047v22.8043Z"/><path class="c" d="M1630,510.4658c-80.4509,4.8458-139.8146,66.5361-211.3525,96.3047-66.1835,27.5404-122.333,2.5839-180.1665-32.076-45.6041-27.3307-95.7478-64.3354-151.332-64.0956-53.2034,.2296-100.9854,34.3091-144.7277,60.7361-43.9523,26.5539-93.3325,56.4018-146.8417,47.2676-52.1738-8.9062-97.3762-43.5799-142.0844-69.5692-44.9229-26.1141-92.9188-48.1309-145.445-32.7603-53.8429,15.7559-97.5816,55.2222-147.33,79.7064-61.8831,30.4564-116.6584,23.2271-175.3776-10.4069-58.0556-33.254-112.9802-81.8458-182.4345-86.2195,.3238-8.0208,.4844-12.0356,.777-20.1627,68.9427,4.2151,123.1825,52.4182,180.8194,85.333,58.7833,33.5696,113.5734,39.745,175.2395,9.2354,49.9889-24.7322,94.0569-64.3495,148.2053-80.233,52.5846-15.4247,100.559,6.552,145.5459,32.7032,44.7083,25.9893,89.9106,60.663,142.0844,69.5692,53.5092,9.1342,102.8895-20.7137,146.8417-47.2676,43.7423-26.427,91.5243-60.5065,144.7277-60.7361,55.5842-.2399,105.7279,36.7649,151.332,64.0956,57.8335,34.6599,113.983,59.6164,180.1665,32.076,71.538-29.7686,130.9016-91.4589,211.3525-96.3047v22.8043Z"/><path class="c" d="M1630,417.4943c-80.4509,4.8459-139.8146,66.5362-211.3525,96.3047-66.1835,27.5404-122.333,2.5839-180.1665-32.076-45.6041-27.3307-95.7478-64.3354-151.332-64.0956-53.2034,.2296-100.9854,34.3091-144.7277,60.7361-43.9523,26.5539-93.3325,56.4018-146.8417,47.2676-52.1738-8.9062-97.3762-43.5799-142.0844-69.5692-45.0284-26.1754-92.981-48.0922-145.6156-32.7382-54.741,15.9684-99.5287,55.791-149.9234,80.9999-61.2573,30.6428-116.2615,26.6918-175.2524-6.7976-56.967-32.3404-109.6332-79.7567-177.7037-84.0317,0-9.1217-.0384-13.7364-.166-23.0367,68.1481,4.1768,120.9345,51.8071,177.9176,84.2172,58.8889,33.494,113.5822,37.4905,174.7467,6.8703,50.4951-25.2789,95.4588-65.0512,150.3283-81.0227,52.6761-15.3331,100.6005,6.5369,145.6684,32.7353,44.7083,25.9893,89.9106,60.663,142.0844,69.5692,53.5092,9.1342,102.8895-20.7137,146.8417-47.2676,43.7423-26.427,91.5243-60.5065,144.7277-60.7361,55.5842-.2399,105.7279,36.7648,151.332,64.0956,57.8335,34.6599,113.983,59.6164,180.1665,32.076,71.538-29.7686,130.9016-91.4589,211.3525-96.3047v22.8043Z"/><path class="c" d="M1630,324.5229c-80.4509,4.8459-139.8146,66.5362-211.3525,96.3047-66.1835,27.5404-122.333,2.5839-180.1665-32.076-45.6041-27.3307-95.7478-64.3354-151.332-64.0956-53.2034,.2296-100.9854,34.3091-144.7277,60.7361-43.9523,26.5539-93.3325,56.4018-146.8417,47.2676-52.1738-8.9063-97.3762-43.5799-142.0844-69.5692-45.026-26.174-93.1838-48.21-145.8308-32.7261-55.2578,16.2518-100.6904,55.5579-151.5743,81.0929-28.373,14.2384-60.0234,25.4673-92.2743,22.6096-29.1081-2.5793-56.4697-16.0071-81.3937-30.3717-57.3218-33.0365-110.7277-81.7242-179.514-86.1011-.3238-9.5751-.4922-14.3717-.8161-23.9468,69.0473,4.5106,122.6878,53.5948,180.1588,86.8899,24.9585,14.4594,52.3817,28.0483,81.5677,30.7022,32.0972,2.9186,63.5927-8.3873,91.8138-22.5606,50.9847-25.6057,96.5931-64.8606,151.9792-81.1157,52.6883-15.4633,100.8183,6.5263,145.8836,32.7231,44.7083,25.9893,89.9106,60.6629,142.0844,69.5692,53.5092,9.1342,102.8895-20.7137,146.8417-47.2676,43.7423-26.427,91.5243-60.5064,144.7277-60.7361,55.5842-.2399,105.7279,36.7648,151.332,64.0956,57.8335,34.6599,113.983,59.6164,180.1665,32.076,71.538-29.7686,130.9016-91.4589,211.3525-96.3047v22.8043Z"/><path class="c" d="M1630,231.5515c-80.4509,4.8459-139.8146,66.5362-211.3525,96.3047-66.1835,27.5404-122.333,2.5839-180.1665-32.076-45.6041-27.3307-95.7478-64.3354-151.332-64.0956-53.2034,.2296-100.9854,34.3091-144.7277,60.7361-43.9523,26.5539-93.3325,56.4018-146.8417,47.2676-52.1738-8.9063-97.3762-43.5799-142.0844-69.5692-45.1857-26.2668-93.2313-48.1144-146.046-32.714-55.7808,16.2653-101.9306,55.3616-153.2253,81.1859-27.7693,13.9804-58.7387,25.4637-90.3747,22.4409-29.355-2.8048-56.9099-16.7957-81.928-31.4742C124.1131,275.6409,69.8488,225.4979,.166,220.7838c-.1276-9.3003-.166-13.9149-.166-23.0367,69.7576,4.6143,124.148,54.9763,181.9691,88.9593,25,14.6932,52.5529,28.7422,81.9076,31.5324,31.4947,2.9936,62.256-8.5033,89.8895-22.4265,51.3954-25.8955,97.7213-64.9401,153.6302-81.2086,52.8557-15.3802,100.8741,6.4215,146.0988,32.711,44.7083,25.9893,89.9106,60.6629,142.0844,69.5692,53.5092,9.1342,102.8895-20.7137,146.8417-47.2676,43.7423-26.427,91.5243-60.5064,144.7277-60.7361,55.5842-.2399,105.7279,36.7648,151.332,64.0956,57.8335,34.6599,113.983,59.6164,180.1665,32.076,71.538-29.7686,130.9016-91.4589,211.3525-96.3047v22.8043Z"/><path class="c" d="M1630,138.5801c-80.4509,4.8459-139.8146,66.5362-211.3525,96.3047-65.2325,27.1447-121.8987,3.2362-179.9517-29.3908-45.9495-25.8245-96.1661-60.4096-151.0187-60.179-52.636,.2212-100.7683,32.1244-145.0236,57.0387-44.4193,25.0066-94.1982,53.1732-147.074,44.3641-51.7753-8.6257-97.0125-41.6192-141.9102-66.6066-45.538-25.3438-93.4371-46.073-146.0178-31.3337-55.6049,15.587-102.3686,52.9028-153.8369,77.6944-27.7334,13.3588-58.632,24.5444-89.9381,21.585-29.2535-2.7654-56.8086-16.4351-81.9076-30.8095C123.9394,184.013,69.4067,135.1295,0,130.4731v-21.095c69.2504,4.471,123.8574,52.7189,181.9691,85.5542,25.15,14.2107,52.6968,27.6535,81.9076,30.3445,31.2739,2.8811,62.1114-7.8961,89.9745-20.9918,51.502-24.206,98.4543-60.763,153.9437-75.8789,52.4316-14.2829,100.3019,5.7228,145.9734,30.5783,44.9549,24.4656,90.2242,56.7171,141.8168,65.021,52.7258,8.4863,102.4174-18.3813,147.2091-42.7006,44.6427-24.2383,92.6757-54.7302,145.1917-54.936,54.6552-.2142,104.5764,32.8165,150.8419,57.9693,58.1584,31.6186,115.082,54.6812,179.8198,27.7423,71.538-29.7686,130.9016-91.4589,211.3525-96.3047v22.8043Z"/><path class="c" d="M1630,45.6086c-80.4509,4.8458-139.8146,66.5362-211.3525,96.3047-63.2866,26.335-121.0139,5.6575-179.4308-22.8795-47.1298-23.0232-96.2878-51.5928-150.3182-51.4228-52.1454,.164-99.9595,26.5992-145.6898,48.7094-45.8309,22.1589-95.3347,45.3399-147.6085,37.7762-51.0513-7.3868-96.4131-37.4148-141.5398-60.3103-46.0494-23.3638-93.8545-41.2979-145.8415-28.337-55.1465,13.7487-102.6603,48.01-154.2616,70.4744-61.1975,26.6421-113.6873,21.8866-171.9883-9.7229C123.6147,94.5622,68.7822,48.2215,0,44.2628V22.4392c68.6662,3.9629,123.5517,49.822,181.9691,81.201,58.33,31.3321,110.7779,35.9687,172.0051,9.7662,51.6237-22.0926,99.2774-55.7744,154.3309-69.2968,51.8964-12.747,99.6736,4.8479,145.8142,27.8731,45.1816,22.5467,90.5582,52.027,141.4812,59.3147,52.092,7.455,101.718-15.1904,147.6871-36.7947,45.8846-21.5646,93.8081-47.2993,145.7897-47.4603,53.8003-.1666,102.9872,27.6281,150.2124,50.1007,58.4626,27.8199,116.3752,48.1745,179.3578,21.966,71.538-29.7686,130.9016-91.4589,211.3525-96.3047v22.8043Z"/></g><g><path class="g" d="M1630,812.1844c-80.4509,4.8458-139.8146,66.5361-211.3525,96.3047-66.1835,27.5404-122.333,2.5839-180.1665-32.076-45.6041-27.3307-95.7478-64.3354-151.332-64.0956-53.2034,.2296-100.9854,34.3091-144.7277,60.7361-43.9523,26.5539-93.3325,56.4018-146.8417,47.2676-52.1738-8.9062-97.3762-43.5799-142.0844-69.5692-45.2111-26.2816-93.2506-48.1306-146.0819-32.6514-55.6716,16.3114-101.6613,55.4074-152.9038,81.1439-27.7452,13.9351-58.7382,25.3085-90.322,22.1526-29.3634-2.934-56.9003-17.178-81.8702-31.956-57.8154-34.2168-112.425-84.9342-182.3172-89.5555v-23.6067c70.0201,4.6108,124.9851,55.2535,182.9621,89.4907,25.02,14.7751,52.5805,29.0859,81.9669,32.1525,31.6503,3.3028,62.7853-7.8356,90.64-21.7638,51.0036-25.5032,96.5796-64.5833,151.9238-80.8572,52.7723-15.5177,100.8458,6.3967,146.0023,32.6466,44.7083,25.9893,89.9106,60.663,142.0844,69.5692,53.5092,9.1342,102.8895-20.7137,146.8417-47.2676,43.7423-26.427,91.5243-60.5065,144.7277-60.7361,55.5842-.2399,105.7279,36.7648,151.332,64.0956,57.8335,34.6599,113.983,59.6164,180.1665,32.076,71.538-29.7686,130.9016-91.4589,211.3525-96.3047v22.8043Z"/><path class="g" d="M1630,719.213c-80.4509,4.8458-139.8146,66.5361-211.3525,96.3047-66.1835,27.5404-122.333,2.5839-180.1665-32.076-45.6041-27.3307-95.7478-64.3354-151.332-64.0956-53.2034,.2296-100.9854,34.3091-144.7277,60.7361-43.9523,26.5539-93.3325,56.4018-146.8417,47.2676-52.1738-8.9062-97.3762-43.5799-142.0844-69.5692-45.0152-26.1677-92.9178-48.0348-145.5505-32.813-54.0485,15.6313-98.1627,54.7361-148.0703,79.2418-28.1402,13.8175-59.5033,23.9518-91.2402,20.1733-29.6052-3.5248-57.3739-18.052-82.7068-32.8675-58.8221-34.4011-115.179-84.866-185.9272-89.5367v-24.2029c70.9977,4.6935,127.8145,55.1014,186.9234,89.5598,58.3156,33.9958,112.1748,43.8173,174.3848,13.4603,49.5664-24.1873,93.1754-63.1916,146.7901-78.6924,52.5332-15.1882,100.4848,6.7653,145.3969,32.873,44.7083,25.9893,89.9106,60.663,142.0844,69.5692,53.5092,9.1342,102.8895-20.7137,146.8417-47.2676,43.7423-26.427,91.5243-60.5065,144.7277-60.7361,55.5842-.2399,105.7279,36.7648,151.332,64.0956,57.8335,34.6599,113.983,59.6164,180.1665,32.076,71.538-29.7686,130.9016-91.4589,211.3525-96.3047v22.8043Z"/><path class="g" d="M1630,626.2415c-80.4509,4.8458-139.8146,66.5361-211.3525,96.3047-66.1835,27.5404-122.333,2.5839-180.1665-32.076-45.6041-27.3307-95.7478-64.3354-151.332-64.0956-53.2034,.2296-100.9854,34.3091-144.7277,60.7361-43.9523,26.5539-93.3325,56.4018-146.8417,47.2676-52.1738-8.9062-97.3762-43.5799-142.0844-69.5692-44.8219-26.0554-92.7391-48.0739-145.1647-32.8472-52.6311,15.2863-95.0104,54.3731-143.826,77.8553-62.6608,30.1422-117.3313,18.5578-175.6566-15.2303-59.5914-34.5215-117.4611-84.6898-188.8477-89.3455,0-9.1217,.0384-13.552,.166-22.24,71.2712,4.8107,128.7612,54.8182,188.2857,89.2691,58.4066,33.8038,113.1605,44.9169,175.7671,14.7217,48.866-23.5681,91.4087-62.6584,144.1475-77.8972,52.4116-15.1443,100.3298,6.8677,145.1288,32.9097,44.7083,25.9893,89.9106,60.663,142.0844,69.5692,53.5092,9.1342,102.8895-20.7137,146.8417-47.2676,43.7423-26.427,91.5243-60.5065,144.7277-60.7361,55.5842-.2399,105.7279,36.7648,151.332,64.0956,57.8335,34.6599,113.983,59.6164,180.1665,32.076,71.538-29.7686,130.9016-91.4589,211.3525-96.3047v22.8043Z"/><path class="g" d="M1630,533.2701c-80.4509,4.8458-139.8146,66.5361-211.3525,96.3047-66.1835,27.5404-122.333,2.5839-180.1665-32.076-45.6041-27.3307-95.7478-64.3354-151.332-64.0956-53.2034,.2296-100.9854,34.3091-144.7277,60.7361-43.9523,26.5539-93.3325,56.4018-146.8417,47.2676-52.1738-8.9062-97.3762-43.5799-142.0844-69.5692-44.8534-26.0737-92.8721-48.1328-145.3353-32.8251-53.5248,15.6174-96.9235,54.9233-146.4194,79.1488-62.1032,30.3962-116.8814,22.0768-175.5314-11.6209-58.4978-33.6104-114.1247-82.6044-184.117-87.1578,.3238-8.0207,.4922-12.009,.8161-20.0297,69.4543,4.3737,124.3789,52.9655,182.4345,86.2195,58.7191,33.634,113.4944,40.8633,175.3776,10.4069,49.7484-24.4842,93.4872-63.9505,147.33-79.7064,52.5262-15.3706,100.5221,6.6462,145.445,32.7603,44.7083,25.9893,89.9106,60.663,142.0844,69.5692,53.5092,9.1342,102.8895-20.7137,146.8417-47.2676,43.7423-26.427,91.5243-60.5065,144.7277-60.7361,55.5842-.2399,105.7279,36.7649,151.332,64.0956,57.8335,34.6599,113.983,59.6164,180.1665,32.076,71.538-29.7686,130.9016-91.4589,211.3525-96.3047v22.8043Z"/><path class="g" d="M1630,440.2987c-80.4509,4.8458-139.8146,66.5362-211.3525,96.3047-66.1835,27.5404-122.333,2.5839-180.1665-32.076-45.6041-27.3307-95.7478-64.3354-151.332-64.0956-53.2034,.2296-100.9854,34.3091-144.7277,60.7361-43.9523,26.5539-93.3325,56.4018-146.8417,47.2676-52.1738-8.9062-97.3762-43.5799-142.0844-69.5692-45.0527-26.1895-93.0015-48.1101-145.6515-32.6757-54.6329,16.0157-99.258,55.8344-149.602,80.958-61.3217,30.602-116.2256,26.1763-175.1419-7.3062-57.0353-32.4135-110.0813-79.9841-178.2658-84.1081,.1276-8.688,.166-13.1183,.166-22.24,68.0706,4.2751,120.7368,51.6913,177.7037,84.0317,58.9909,33.4894,113.9951,37.4404,175.2524,6.7976,50.3947-25.209,95.1824-65.0315,149.9234-80.9999,52.6346-15.354,100.5872,6.5628,145.6156,32.7382,44.7083,25.9893,89.9106,60.663,142.0844,69.5692,53.5092,9.1342,102.8895-20.7137,146.8417-47.2676,43.7423-26.427,91.5243-60.5065,144.7277-60.7361,55.5842-.2399,105.7279,36.7649,151.332,64.0956,57.8335,34.6599,113.983,59.6164,180.1665,32.076,71.538-29.7686,130.9016-91.4589,211.3525-96.3047v22.8043Z"/><path class="g" d="M1630,347.3272c-80.4509,4.8459-139.8146,66.5362-211.3525,96.3047-66.1835,27.5404-122.333,2.5839-180.1665-32.076-45.6041-27.3307-95.7478-64.3354-151.332-64.0956-53.2034,.2296-100.9854,34.3091-144.7277,60.7361-43.9523,26.5539-93.3325,56.4018-146.8417,47.2676-52.1738-8.9062-97.3762-43.5799-142.0844-69.5692-44.9866-26.1511-93.1725-48.2337-145.778-32.7291-55.1293,16.2484-100.3862,55.6056-151.1694,81.0701-61.1775,30.6765-115.1877,26.3051-173.9677-7.401-57.1808-32.7891-110.3589-81.0909-178.8951-85.3487-.2925-9.5313-.4531-14.317-.777-23.8921,68.7862,4.3769,122.1921,53.0646,179.514,86.1011,24.924,14.3645,52.2856,27.7924,81.3937,30.3717,32.2509,2.8577,63.9013-8.3713,92.2743-22.6096,50.8839-25.535,96.3166-64.8411,151.5743-81.0929,52.647-15.4839,100.8048,6.5521,145.8308,32.7261,44.7083,25.9893,89.9106,60.6629,142.0844,69.5692,53.5092,9.1342,102.8895-20.7137,146.8417-47.2676,43.7423-26.427,91.5243-60.5064,144.7277-60.7361,55.5842-.2399,105.7279,36.7648,151.332,64.0956,57.8335,34.6599,113.983,59.6164,180.1665,32.076,71.538-29.7686,130.9016-91.4589,211.3525-96.3047v22.8043Z"/><path class="g" d="M1630,254.3558c-80.4509,4.8459-139.8146,66.5362-211.3525,96.3047-66.1835,27.5404-122.333,2.5839-180.1665-32.076-45.6041-27.3307-95.7478-64.3354-151.332-64.0956-53.2034,.2296-100.9854,34.3091-144.7277,60.7361-43.9523,26.5539-93.3325,56.4018-146.8417,47.2676-52.1738-8.9063-97.3762-43.5799-142.0844-69.5692-45.1467-26.2442-93.2195-48.1377-145.9932-32.7169-55.6526,16.262-101.6264,55.41-152.8203,81.1631-27.9117,14.041-59.0669,25.4841-90.8492,22.4703-29.3217-2.7805-56.8515-16.6693-81.8648-31.2987C124.2313,298.773,70.1395,248.9248,.6118,244.2122c-.2238-9.4351-.3182-14.1281-.4458-23.4284,69.6828,4.7141,123.9472,54.8571,181.7552,88.7739,25.0181,14.6785,52.573,28.6694,81.928,31.4742,31.6359,3.0228,62.6054-8.4605,90.3747-22.4409,51.2946-25.8242,97.4445-64.9206,153.2253-81.1859,52.8148-15.4004,100.8603,6.4471,146.046,32.714,44.7083,25.9893,89.9106,60.6629,142.0844,69.5692,53.5092,9.1342,102.8895-20.7137,146.8417-47.2676,43.7423-26.427,91.5243-60.5064,144.7277-60.7361,55.5842-.2399,105.7279,36.7648,151.332,64.0956,57.8335,34.6599,113.983,59.6164,180.1665,32.076,71.538-29.7686,130.9016-91.4589,211.3525-96.3047v22.8043Z"/><path class="g" d="M1630,161.3844c-80.4509,4.8459-139.8146,66.5362-211.3525,96.3047-65.6661,27.3252-122.1086,2.7335-180.0627-30.7788-45.6979-26.425-96.1078-62.317-151.1703-62.0744-52.7783,.2325-100.9408,33.3195-144.8795,58.8389-44.1174,25.6232-93.9127,54.846-146.9589,45.7861-51.9406-8.8711-97.1522-42.5409-141.9911-67.9832-45.4131-25.7681-93.3469-47.0996-146.0562-31.9858-55.7151,15.9757-102.3054,53.9828-153.7434,79.2839-27.6353,13.5931-58.5602,25.0862-89.9087,22.0709-29.2931-2.8176-56.8535-16.6798-81.9076-31.1974C124.0168,206.069,69.549,156.6017,0,151.8262v-21.3531c69.4067,4.6564,123.9394,53.5399,181.9691,86.7742,25.0989,14.3745,52.6541,28.0442,81.9076,30.8095,31.3061,2.9594,62.2048-8.2262,89.9381-21.585,51.4683-24.7916,98.2321-62.1074,153.8369-77.6944,52.5806-14.7393,100.4797,5.99,146.0178,31.3337,44.8977,24.9874,90.1348,57.981,141.9102,66.6066,52.8758,8.8091,102.6547-19.3575,147.074-44.3641,44.2552-24.9143,92.3876-56.8175,145.0236-57.0387,54.8525-.2305,105.0692,34.3545,151.0187,60.179,58.053,32.627,114.7191,56.5355,179.9517,29.3908,71.538-29.7686,130.9016-91.4589,211.3525-96.3047v22.8043Z"/><path class="g" d="M1630,68.4129c-80.4509,4.8459-139.8146,66.5362-211.3525,96.3047-63.7014,26.5076-121.1888,5.2107-179.5397-24.2404-46.915-23.6791-96.2234-53.4657-150.4672-53.2853-52.2797,.1739-100.1016,27.7151-145.5483,50.478-45.5634,22.8213-95.0649,46.9726-147.4955,39.1728-51.2111-7.6183-96.5482-38.3112-141.6194-61.6651-45.9392-23.8036-93.7651-42.2964-145.8792-28.9783-55.2515,14.1199-102.5973,49.0738-154.1695,72.0403-61.2253,27.2653-113.6183,22.3907-171.9595-9.628C123.688,116.6262,68.9223,69.7115,0,65.6429v-21.3801c68.7822,3.9588,123.6147,50.2995,181.9691,81.938,58.301,31.6096,110.7907,36.365,171.9883,9.7229,51.6012-22.4644,99.115-56.7257,154.2616-70.4744,51.987-12.961,99.7921,4.9732,145.8415,28.337,45.1266,22.8956,90.4885,52.9235,141.5398,60.3103,52.2738,7.5637,101.7775-15.6173,147.6085-37.7762,45.7303-22.1102,93.5444-48.5454,145.6898-48.7094,54.0304-.1699,103.1885,28.3997,150.3182,51.4228,58.4169,28.537,116.1442,49.2145,179.4308,22.8795,71.538-29.7686,130.9016-91.4589,211.3525-96.3047v22.8043Z"/></g><g><path class="e" d="M1630,834.9887c-80.4509,4.8458-139.8146,66.5361-211.3525,96.3047-66.1835,27.5404-122.333,2.5839-180.1665-32.076-45.6041-27.3307-95.7478-64.3354-151.332-64.0956-53.2034,.2296-100.9854,34.3091-144.7277,60.7361-43.9523,26.5539-93.3325,56.4018-146.8417,47.2676-52.1738-8.9062-97.3762-43.5799-142.0844-69.5692-45.2247-26.2895-93.2432-48.0912-146.0988-32.711-55.9088,16.2686-102.2348,55.3131-153.6302,81.2086-27.6211,13.9169-58.4055,25.4395-89.8895,22.4223-29.3855-2.8162-56.9398-16.9977-81.9076-31.7931-57.7586-34.2264-112.1046-85.0349-181.9691-89.6945v-23.103c69.8922,4.6213,124.5018,55.3387,182.3172,89.5555,24.97,14.778,52.5069,29.022,81.8702,31.956,31.5838,3.1559,62.5768-8.2176,90.322-22.1526,51.2425-25.7365,97.2322-64.8325,152.9038-81.1439,52.8313-15.4792,100.8708,6.3698,146.0819,32.6514,44.7083,25.9893,89.9106,60.663,142.0844,69.5692,53.5092,9.1342,102.8895-20.7137,146.8417-47.2676,43.7423-26.427,91.5243-60.5065,144.7277-60.7361,55.5842-.2399,105.7279,36.7648,151.332,64.0956,57.8335,34.6599,113.983,59.6164,180.1665,32.076,71.538-29.7686,130.9016-91.4589,211.3525-96.3047v22.8043Z"/><path class="e" d="M1630,742.0172c-80.4509,4.8458-139.8146,66.5361-211.3525,96.3047-66.1835,27.5404-122.333,2.5839-180.1665-32.076-45.6041-27.3307-95.7478-64.3354-151.332-64.0956-53.2034,.2296-100.9854,34.3091-144.7277,60.7361-43.9523,26.5539-93.3325,56.4018-146.8417,47.2676-52.1738-8.9062-97.3762-43.5799-142.0844-69.5692-44.9619-26.1367-93.1312-48.2225-145.713-32.7452-54.4858,16.0377-99.05,54.9496-149.3859,79.8221-28.0519,13.8613-59.3546,24.3425-91.0737,20.7199-29.523-3.3717-57.2139-17.8282-82.433-32.6267-58.5209-34.34-114.4038-84.8591-184.8896-89.5033v-24.2731c70.7482,4.6707,127.1052,55.1356,185.9272,89.5367,25.3329,14.8155,53.1016,29.3427,82.7068,32.8675,31.7369,3.7785,63.1-6.3558,91.2402-20.1733,49.9076-24.5057,94.0218-63.6105,148.0703-79.2418,52.6328-15.2218,100.5353,6.6453,145.5505,32.813,44.7083,25.9893,89.9106,60.663,142.0844,69.5692,53.5092,9.1342,102.8895-20.7137,146.8417-47.2676,43.7423-26.427,91.5243-60.5065,144.7277-60.7361,55.5842-.2399,105.7279,36.7648,151.332,64.0956,57.8335,34.6599,113.983,59.6164,180.1665,32.076,71.538-29.7686,130.9016-91.4589,211.3525-96.3047v22.8043Z"/><path class="e" d="M1630,649.0459c-80.4509,4.8458-139.8146,66.5361-211.3525,96.3047-66.1835,27.5404-122.333,2.5839-180.1665-32.076-45.6041-27.3307-95.7478-64.3354-151.332-64.0956-53.2034,.2296-100.9854,34.3091-144.7277,60.7361-43.9523,26.5539-93.3325,56.4018-146.8417,47.2676-52.1738-8.9062-97.3762-43.5799-142.0844-69.5692-44.8394-26.0655-92.7279-48.0291-145.1816-32.9068-52.8673,15.2416-95.5854,54.2846-144.5524,77.92-62.5013,30.1682-116.9731,19.0096-175.2615-14.7977-59.5321-34.5286-117.1467-84.7902-188.4996-89.4844v-23.1031c71.3866,4.6556,129.2563,54.824,188.8477,89.3455,58.3254,33.7881,112.9958,45.3725,175.6566,15.2303,48.8156-23.4822,91.1949-62.569,143.826-77.8553,52.4257-15.2267,100.3428,6.7918,145.1647,32.8472,44.7083,25.9893,89.9106,60.663,142.0844,69.5692,53.5092,9.1342,102.8895-20.7137,146.8417-47.2676,43.7423-26.427,91.5243-60.5065,144.7277-60.7361,55.5842-.2399,105.7279,36.7648,151.332,64.0956,57.8335,34.6599,113.983,59.6164,180.1665,32.076,71.538-29.7686,130.9016-91.4589,211.3525-96.3047v22.8043Z"/><path class="e" d="M1630,556.0744c-80.4509,4.8458-139.8146,66.5361-211.3525,96.3047-66.1835,27.5404-122.333,2.5839-180.1665-32.076-45.6041-27.3307-95.7478-64.3354-151.332-64.0956-53.2034,.2296-100.9854,34.3091-144.7277,60.7361-43.9523,26.5539-93.3325,56.4018-146.8417,47.2676-52.1738-8.9062-97.3762-43.5799-142.0844-69.5692-44.8661-26.0811-92.7564-48.0347-145.2344-32.8822-53.2226,15.3676-96.324,54.6623-145.5441,78.6223-62.307,30.3306-117.0945,20.9594-175.6695-12.7925-58.9184-33.9498-115.2263-83.3299-185.7321-88.0442,.2925-8.1271,.4531-12.1419,.777-20.1627,69.9923,4.5534,125.6192,53.5474,184.117,87.1578,58.65,33.6978,113.4282,42.0171,175.5314,11.6209,49.4958-24.2255,92.8946-63.5314,146.4194-79.1488,52.4632-15.3077,100.4819,6.7514,145.3353,32.8251,44.7083,25.9893,89.9106,60.663,142.0844,69.5692,53.5092,9.1342,102.8895-20.7137,146.8417-47.2676,43.7423-26.427,91.5243-60.5065,144.7277-60.7361,55.5842-.2399,105.7279,36.7649,151.332,64.0956,57.8335,34.6599,113.983,59.6164,180.1665,32.076,71.538-29.7686,130.9016-91.4589,211.3525-96.3047v22.8043Z"/><path class="e" d="M1630,463.103c-80.4509,4.8458-139.8146,66.5362-211.3525,96.3047-66.1835,27.5404-122.333,2.5839-180.1665-32.076-45.6041-27.3307-95.7478-64.3354-151.332-64.0956-53.2034,.2296-100.9854,34.3091-144.7277,60.7361-43.9523,26.5539-93.3325,56.4018-146.8417,47.2676-52.1738-8.9062-97.3762-43.5799-142.0844-69.5692-45.0366-26.1801-92.9932-48.1213-145.6247-32.6679-54.4343,15.9828-98.8206,55.7303-149.0269,80.6942-61.4608,30.5598-116.2947,25.3936-175.1452-8.1184-57.2632-32.6081-110.8306-80.4421-179.3101-84.5554,.2238-8.3607,.3182-12.6007,.4458-21.2887,68.1844,4.124,121.2304,51.6946,178.2658,84.1081,58.9163,33.4825,113.8201,37.9082,175.1419,7.3062,50.344-25.1236,94.9691-64.9423,149.602-80.958,52.65-15.4344,100.5988,6.4861,145.6515,32.6757,44.7083,25.9893,89.9106,60.663,142.0844,69.5692,53.5092,9.1342,102.8895-20.7137,146.8417-47.2676,43.7423-26.427,91.5243-60.5065,144.7277-60.7361,55.5842-.2399,105.7279,36.7649,151.332,64.0956,57.8335,34.6599,113.983,59.6164,180.1665,32.076,71.538-29.7686,130.9016-91.4589,211.3525-96.3047v22.8043Z"/><path class="e" d="M1630,370.1315c-80.4509,4.8459-139.8146,66.5362-211.3525,96.3047-66.1835,27.5404-122.333,2.5839-180.1665-32.076-45.6041-27.3307-95.7478-64.3354-151.332-64.0956-53.2034,.2296-100.9854,34.3091-144.7277,60.7361-43.9523,26.5539-93.3325,56.4018-146.8417,47.2676-52.1738-8.9062-97.3762-43.5799-142.0844-69.5692-44.9471-26.1281-93.1612-48.2575-145.7252-32.7321-55.0007,16.2451-100.0819,55.6532-150.7645,81.0473-61.1443,30.6359-115.488,26.4823-174.3069-7.0953-57.0638-32.5756-110.0347-80.5242-178.3539-84.7051-.2299-9.4437-.3671-14.1965-.6596-23.7278,68.5361,4.2578,121.7143,52.5596,178.8951,85.3487,58.78,33.7061,112.7902,38.0775,173.9677,7.401,50.7832-25.4645,96.0401-64.8217,151.1694-81.0701,52.6055-15.5046,100.7914,6.578,145.778,32.7291,44.7083,25.9893,89.9106,60.663,142.0844,69.5692,53.5092,9.1342,102.8895-20.7137,146.8417-47.2676,43.7423-26.427,91.5243-60.5064,144.7277-60.7361,55.5842-.2399,105.7279,36.7648,151.332,64.0956,57.8335,34.6599,113.983,59.6164,180.1665,32.076,71.538-29.7686,130.9016-91.4589,211.3525-96.3047v22.8043Z"/><path class="e" d="M1630,277.1601c-80.4509,4.8459-139.8146,66.5362-211.3525,96.3047-66.1835,27.5404-122.333,2.5839-180.1665-32.076-45.6041-27.3307-95.7478-64.3354-151.332-64.0956-53.2034,.2296-100.9854,34.3091-144.7277,60.7361-43.9523,26.5539-93.3325,56.4018-146.8417,47.2676-52.1738-8.9063-97.3762-43.5799-142.0844-69.5692-45.1076-26.2214-93.2078-48.1611-145.9404-32.7199-55.5244,16.2587-101.3222,55.4582-152.4154,81.1403-28.059,14.1039-59.3835,25.4875-91.3161,22.5103-29.2642-2.7284-56.7491-16.4832-81.7413-31.0389-57.6222-33.5597-111.5077-83.0581-180.8228-87.6966-.2888-9.5261-.4235-14.2755-.6474-23.7106,69.5278,4.7125,123.6196,54.5608,181.3558,88.3288,25.0133,14.6295,52.5431,28.5182,81.8648,31.2987,31.7823,3.0139,62.9375-8.4293,90.8492-22.4703,51.1939-25.7531,97.1677-64.9011,152.8203-81.1631,52.7737-15.4208,100.8465,6.4728,145.9932,32.7169,44.7083,25.9893,89.9106,60.6629,142.0844,69.5692,53.5092,9.1342,102.8895-20.7137,146.8417-47.2676,43.7423-26.427,91.5243-60.5064,144.7277-60.7361,55.5842-.2399,105.7279,36.7648,151.332,64.0956,57.8335,34.6599,113.983,59.6164,180.1665,32.076,71.538-29.7686,130.9016-91.4589,211.3525-96.3047v22.8043Z"/><path class="e" d="M1630,184.1887c-80.4509,4.8459-139.8146,66.5362-211.3525,96.3047-65.9954,27.4622-122.2628,2.4725-180.139-31.7329-45.5619-26.9276-95.9843-63.6927-151.28-63.4456-52.9567,.2367-101.0291,34.1103-144.7758,60.1351-43.9402,26.1399-93.6296,55.9946-146.8773,46.8052-52.076-8.9872-97.2739-43.2236-142.0516-69.0114-45.3066-26.0924-93.2797-47.8147-146.0844-32.4657-55.816,16.2242-102.2589,54.813-153.672,80.4967-27.5921,13.7837-58.4836,25.4115-89.8907,22.3779-29.3271-2.8327-56.8877-16.8293-81.9076-31.4565C124.0863,228.3569,69.6676,178.3927,0,173.6096v-21.7834c69.549,4.7755,124.0168,54.2428,181.9691,87.8231,25.0541,14.5175,52.6145,28.3798,81.9076,31.1974,31.3485,3.0153,62.2734-8.4778,89.9087-22.0709,51.438-25.3011,98.0283-63.3082,153.7434-79.2839,52.7093-15.1138,100.6431,6.2177,146.0562,31.9858,44.8389,25.4423,90.0506,59.1122,141.9911,67.9832,53.0463,9.0599,102.8415-20.1629,146.9589-45.7861,43.9387-25.5194,92.1012-58.6064,144.8795-58.8389,55.0625-.2426,105.4724,35.6493,151.1703,62.0744,57.9541,33.5124,114.3966,58.104,180.0627,30.7788,71.538-29.7686,130.9016-91.4589,211.3525-96.3047v22.8043Z"/><path class="e" d="M1630,91.2172c-80.4509,4.8459-139.8146,66.5362-211.3525,96.3047-64.186,26.7092-121.4047,4.6033-179.6704-25.875-46.6211-24.387-96.1976-55.6739-150.6427-55.4783-52.3961,.1882-100.3027,29.0945-145.3813,52.5646-45.2111,23.539-94.7875,48.9383-147.3616,40.8236-51.3907-7.9321-96.6965-39.3618-141.7121-63.2395-45.8146-24.3016-93.6602-43.4929-145.9233-29.7282-55.3641,14.5815-102.5242,50.2955-154.0634,73.8438-28.0123,12.7989-58.7723,23.104-90.016,20.315-29.1639-2.6033-56.7004-15.7901-81.9076-29.8164C123.768,138.546,69.0774,91.0004,0,86.7516v-21.1087c68.9223,4.0686,123.688,50.9833,181.9691,82.969,58.3412,32.0187,110.7342,36.8932,171.9595,9.628,51.5722-22.9665,98.918-57.9203,154.1695-72.0403,52.1141-13.3182,99.94,5.1747,145.8792,28.9783,45.0713,23.3539,90.4084,54.0467,141.6194,61.6651,52.4307,7.7998,101.9322-16.3516,147.4955-39.1728,45.4468-22.7629,93.2687-50.3041,145.5483-50.478,54.2438-.1804,103.5521,29.6061,150.4672,53.2853,58.3508,29.451,115.8383,50.748,179.5397,24.2404,71.538-29.7686,130.9016-91.4589,211.3525-96.3047v22.8043Z"/></g></g></g></svg>